<svg xmlns="http://www.w3.org/2000/svg" xmlns:xlink="http://www.w3.org/1999/xlink" viewBox="0 0 2500 2437.51"><defs><style>.cls-1{fill:url(#radial-gradient);}.cls-2{fill:#ff7f18;}</style><radialGradient id="radial-gradient" cx="4508.06" cy="-1262.45" r="0.76" gradientTransform="matrix(2291.67, 0, 0, -2218.75, -10330140.75, -2800471.22)" gradientUnits="userSpaceOnUse"><stop offset="0" stop-color="#423325" stop-opacity="0.98"/><stop offset="1" stop-color="#1c0a00"/></radialGradient></defs><g id="Layer_2" data-name="Layer 2"><g id="Layer_1-2" data-name="Layer 1"><path class="cls-1" d="M104.17,104.17H2395.84V2333.34H104.17Z"/><path class="cls-2" d="M104.17,104.17H2395.84V2333.34H104.17ZM0,2437.51H2500V0H0ZM1637.5,868.75c0-8.33,3.13-12.5,12.5-12.5h163.54c8.33,0,12.5,3.12,12.5,12.5v821.88c0,8.33-2.08,12.5-12.5,12.5H1652.09c-10.42,0-13.55-5.21-13.55-13.54V868.75ZM1626,632.29C1626,565.63,1672.92,526,1732.3,526c63.54,0,106.25,42.71,106.25,106.25,0,68.75-44.79,106.25-108.34,106.25C1669.79,738.54,1626,701,1626,632.29Zm-468.75,579.17c-29.16-115.63-97.91-367.71-124-489.58h-2.08c-21.87,121.87-77.08,328.12-120.83,489.58ZM867.71,1380.21l-82.29,312.5c-2.09,8.33-5.21,10.42-15.63,10.42H616.67c-10.42,0-12.5-3.13-10.42-15.63L902.09,652.08c5.2-18.75,8.33-35.42,10.41-86.45,0-7.29,3.13-10.42,8.33-10.42h218.75c7.29,0,10.42,2.08,12.51,10.42l331.24,1124c2.09,8.32,0,13.54-8.33,13.54H1302.08c-8.33,0-13.54-2.09-15.62-9.37L1201,1380.21Z"/></g></g></svg>