<svg xmlns="http://www.w3.org/2000/svg" viewBox="0 0 2500 1991.52"><defs><style>.cls-1{fill:#7952b3;fill-rule:evenodd;}</style></defs><g id="Layer_2" data-name="Layer 2"><g id="Layer_1-2" data-name="Layer 1"><path class="cls-1" d="M519.26,0C376.61,0,271.06,124.85,275.79,260.25c4.53,130.09-1.36,298.56-43.77,436C189.45,834,117.52,921.29,0,932.5V1059c117.52,11.23,189.45,98.5,232,236.3,42.42,137.39,48.31,305.87,43.77,436-4.73,135.38,100.83,260.25,243.5,260.25H1980.93c142.65,0,248.18-124.85,243.45-260.25-4.53-130.08,1.36-298.56,43.77-435.95,42.57-137.8,114.33-225.1,231.85-236.3V932.5c-117.52-11.23-189.28-98.5-231.85-236.29-42.41-137.38-48.3-305.87-43.77-436C2229.11,124.87,2123.58,0,1980.93,0H519.26ZM1694.92,1225.91c0,186.44-139.07,299.51-369.86,299.51H932.2a42.37,42.37,0,0,1-42.37-42.37h0V508.48A42.37,42.37,0,0,1,932.2,466.1h390.63c192.43,0,318.73,104.24,318.73,264.28,0,112.33-85,212.89-193.2,230.51v5.86c147.34,16.16,246.56,118.21,246.56,259.16ZM1282.23,600.42h-224V916.83h188.67c145.85,0,226.27-58.73,226.27-163.71,0-98.37-69.16-152.7-190.93-152.7Zm-224,441.95v348.69h232.25c151.85,0,232.29-60.93,232.29-175.44s-82.69-173.27-242.06-173.27H1058.22Z"/></g></g></svg>