<?xml version="1.0" encoding="utf-8"?>
<!-- Generator: Adobe Illustrator 25.1.0, SVG Export Plug-In . SVG Version: 6.00 Build 0)  -->
<svg version="1.1" id="Layer_1" xmlns="http://www.w3.org/2000/svg" xmlns:xlink="http://www.w3.org/1999/xlink" x="0px" y="0px"
	 viewBox="0 0 295.3 295.3" style="enable-background:new 0 0 295.3 295.3;" xml:space="preserve">
<style type="text/css">
	.st0{fill:#F9BA48;}
</style>
<g>
	<g>
		<g>
			<path d="M147.7,76.2c-31.5,0-57.1,25.6-57.1,57.1c0,20.5,10.9,39.2,28.6,49.4v5.4c-2.9,2.2-4.8,5.6-4.8,9.5
				c0,2.7,0.9,5.1,2.4,7.1c-1.5,2-2.4,4.4-2.4,7.1c0,6.6,5.3,11.9,11.9,11.9h42.9c6.6,0,11.9-5.3,11.9-11.9c0-2.7-0.9-5.1-2.4-7.1
				c1.5-2,2.4-4.5,2.4-7.1c0-3.9-1.9-7.3-4.8-9.5v-5.4c17.7-10.2,28.6-28.9,28.6-49.4C204.8,101.9,179.2,76.2,147.7,76.2z
				 M169.1,214.3h-42.9c-1.3,0-2.4-1.1-2.4-2.4s1.1-2.4,2.4-2.4h42.9c1.3,0,2.4,1.1,2.4,2.4C171.5,213.3,170.4,214.3,169.1,214.3z
				 M169.1,200h-42.9c-1.3,0-2.4-1.1-2.4-2.4s1.1-2.4,2.4-2.4h42.9c1.3,0,2.4,1.1,2.4,2.4S170.4,200,169.1,200z M169.3,175.7
				l-2.6,1.3v8.7h-14.3v-34c8.2-2.1,14.3-9.5,14.3-18.4c0-10.5-8.5-19-19-19s-19,8.5-19,19c0,8.8,6.1,16.2,14.3,18.4v34h-14.3v-8.7
				l-2.6-1.3c-16-8.2-26-24.4-26-42.4c0-26.3,21.4-47.6,47.6-47.6s47.6,21.4,47.6,47.6C195.3,151.3,185.3,167.5,169.3,175.7z
				 M147.7,142.9c-5.3,0-9.5-4.3-9.5-9.5c0-5.3,4.3-9.5,9.5-9.5s9.5,4.3,9.5,9.5C157.2,138.6,152.9,142.9,147.7,142.9z"/>
			<path d="M291.8,177.2c-3.3-15.3-9-30.6-16.6-45.7c11.1-38,6.2-73.3-16-95.4c-19.7-19.7-49.9-26.3-85.1-18.6
				c-3.4,0.7-6.9,1.7-10.3,2.7c-15.1-7.6-30.4-13.3-45.7-16.6C79.2-5.1,45.8,2.3,24,24C2.3,45.8-5,79.2,3.5,118.1
				c3.3,15.3,9,30.6,16.6,45.7c-11.3,38.5-5.9,73.5,16,95.4C50.4,273.6,70.3,281,93.7,281c8.7,0,17.9-1,27.5-3.1
				c3.4-0.7,6.9-1.7,10.3-2.7c15.1,7.6,30.4,13.3,45.7,16.6c10.6,2.3,20.8,3.5,30.4,3.5c25.8,0,47.8-8.2,63.7-24
				C293.1,249.5,300.4,216.1,291.8,177.2z M252.5,42.8c17.8,17.8,22.9,45.6,16.1,76.5c-10.7-18.3-24.4-36-40.5-52.1
				C212,51.1,194.3,37.4,176,26.7C206.6,20,234.5,24.8,252.5,42.8z M12.8,116.1c-7.8-35.6-1.4-65.9,18-85.3c14-14,33.7-21.2,57-21.2
				c9,0,18.5,1.1,28.4,3.2c11.6,2.5,23.2,6.5,34.8,11.7c-26.7,10.2-53.1,27.6-76,50.5c-8.3,8.3-15.9,17.2-22.8,26.4
				c-2.2-0.7-4.5-1.2-6.9-1.2c-11.8,0-21.4,9.6-21.4,21.4c0,6.1,2.6,11.6,6.7,15.5c-2.2,4.7-4.3,9.4-6.1,14
				C19.2,139.4,15.3,127.7,12.8,116.1z M57.2,121.5c0,6.6-5.3,11.9-11.9,11.9s-11.9-5.3-11.9-11.9s5.3-11.9,11.9-11.9
				S57.2,114.9,57.2,121.5z M42.8,252.5c-17.6-17.6-22.9-45.2-16-76.4c10.7,18.3,24.4,35.9,40.5,52c16.1,16.1,33.8,29.8,52.1,40.5
				C88.7,275.4,60.8,270.5,42.8,252.5z M73.9,221.4c-18-18-32.8-37.9-43.6-58.5c2.2-6.9,5.1-14,8.5-21.1c2.1,0.7,4.2,1.1,6.5,1.1
				c11.8,0,21.4-9.6,21.4-21.4c0-6-2.4-11.3-6.4-15.2c6.4-8.6,13.6-16.8,21.3-24.6c25.1-25.1,53.8-42.6,81.2-51.4
				c20.6,10.9,40.5,25.7,58.5,43.7c18,18,32.8,37.9,43.7,58.5c-5.3,16.5-13.9,33.6-25.6,50.3c-2.6-1.1-5.5-1.8-8.5-1.8
				c-11.8,0-21.4,9.6-21.4,21.4c0,4.4,1.3,8.4,3.6,11.8c-25,24.8-53.5,42.2-80.6,50.9C111.9,254.2,92,239.4,73.9,221.4z
				 M242.9,202.4c0,6.6-5.3,11.9-11.9,11.9s-11.9-5.3-11.9-11.9s5.3-11.9,11.9-11.9C237.6,190.5,242.9,195.8,242.9,202.4z
				 M264.5,264.5c-19.4,19.4-49.7,25.8-85.3,18c-11.6-2.5-23.2-6.5-34.8-11.7c26.6-10.1,52.8-27.4,75.6-50.1
				c3.2,1.9,6.9,3.1,10.9,3.1c11.8,0,21.4-9.6,21.4-21.4c0-5.3-2-10.2-5.3-13.9c10.2-14.6,18.1-29.4,23.7-44.1
				c5.2,11.6,9.1,23.3,11.7,34.8C290.3,214.8,283.9,245.1,264.5,264.5z"/>
			<path class="st0" d="M147.7,85.7c-26.3,0-47.6,21.4-47.6,47.6c0,17.9,10,34.2,26,42.4l2.6,1.3v8.7h14.3v-34
				c-8.2-2.1-14.3-9.5-14.3-18.4c0-10.5,8.5-19,19-19s19,8.5,19,19c0,8.8-6.1,16.2-14.3,18.4v34h14.3v-8.7l2.6-1.3
				c16-8.2,26-24.4,26-42.4C195.3,107.1,173.9,85.7,147.7,85.7z"/>
		</g>
	</g>
</g>
</svg>
