<?xml version="1.0" encoding="utf-8"?>
<!-- Generator: Adobe Illustrator 25.1.0, SVG Export Plug-In . SVG Version: 6.00 Build 0)  -->
<svg version="1.1" id="Layer_1" xmlns="http://www.w3.org/2000/svg" xmlns:xlink="http://www.w3.org/1999/xlink" x="0px" y="0px"
	 viewBox="0 0 512 512" style="enable-background:new 0 0 512 512;" xml:space="preserve">
<style type="text/css">
	.st0{fill:#FF9F15;}
	.st1{fill:#56BF00;}
</style>
<g>
	<g>
		<path d="M511.7,222.6l-16.6-64.4c-0.8-3.1-3-5.5-6-6.6s-6.3-0.5-8.8,1.4L427,192.9c-1.5,1.1-2.6,2.7-3.3,4.4l-25,71.3
			c-6.6-6.1-13.8-11.5-21.4-16.2l9.2-79.1c23.3-31.2,32.8-62.5,28.2-93.1c-7.1-47.2-45.1-74.8-46.8-76c-3.4-2.4-8-2.3-11.3,0.2
			c-3.3,2.5-4.5,6.9-3.1,10.8l4.4,11.7c7.2,18.9,0,40.5-17.1,51.4c-27.2,17.2-36.6,51.7-21.9,80.3l4.7,9.2l-3.7,64.8
			c-5-0.6-10.2-0.9-15.3-0.9c-10.8,0-21.5,1.3-31.9,3.7l-1.7-7.6c2.5-1.7,4.7-3.8,6.4-6.5c3.1-4.9,4.1-10.7,2.9-16.3
			c-1.3-5.6-4.6-10.4-9.5-13.5c-2.5-1.6-5.2-2.6-8-3.1l-2.3-10.2c-0.9-4.3-0.7-8.6,0.6-11.8c5.2-12.9,2.2-30-7.2-40.8L203,67.5
			c-2.3-2.6-5.8-3.8-9.2-3c-3.4,0.8-6.1,3.3-7,6.6l-21.4,74.3c-4,13.8,0.6,30.6,10.8,40c2.6,2.4,4.6,6.2,5.5,10.5l2.3,10.2
			c-2.4,1.6-4.4,3.7-6,6.2c-3.1,4.9-4.1,10.7-2.9,16.3c1.3,5.6,4.6,10.4,9.5,13.5c2.6,1.7,5.6,2.7,8.6,3.2l7.4,33.5
			c-6.5,7.3-12.2,15.4-17,23.9c-2.6-0.4-5.2-0.8-7.7-1l-42.2-65.3c-1.4-2.1-3.5-3.6-6-4.1c-2.4-0.5-5-0.1-7.1,1.3L18.9,299.4
			c-4.4,2.8-5.6,8.7-2.8,13.1l37.6,58.2C22.9,378.1,0,406,0,439.1c0,38.9,31.6,70.5,70.5,70.5h359.1c38.9,0,70.5-31.6,70.5-70.5
			c0-27.8-16.4-52.2-40.3-63.6l51.7-147.3C512.1,226.3,512.2,224.4,511.7,222.6z M480.3,176.6l2.5,9.6c-1.8-0.2-3.7-0.6-5.4-1.3
			c-1.8-0.6-3.5-1.4-5-2.4L480.3,176.6z M437.2,216.1c5.1,3.5,10.4,6.6,16,9.1L425.9,303c-3.7-6.6-7.9-12.9-12.6-18.8L437.2,216.1z
			 M351,94.3c17.8-11.3,28.1-30.6,28.6-50.7c7.2,10.3,13.9,23.6,16.3,39.4c3.7,24.7-4.1,50.5-23,76.8l-33.6-2.9l-3.5-6.8
			C325.7,130.2,332.2,106.2,351,94.3z M341.4,189.9l0.8-13.8l24.6,2.1l-1.6,13.7L341.4,189.9z M363.1,210.7l-3.7,32.3
			c-6.6-2.8-13.5-5.2-20.6-7l1.6-27.3L363.1,210.7z M189,171.6c-5-4.6-7.4-14-5.4-20.9l11.2-38.7l6.7,30.2c1,4.4,4.9,7.4,9.2,7.4
			c0.7,0,1.4-0.1,2.1-0.2c5.1-1.1,8.3-6.2,7.2-11.3l-6.7-30.2l26.5,30.4c4.7,5.4,6.5,14.9,3.9,21.2c-2.8,6.8-3.3,15-1.5,23.1
			l1.9,8.6l-42,9.3l-1.9-8.6C198.3,183.8,194.4,176.6,189,171.6z M198.6,226.1C198.6,226.1,198.5,226.1,198.6,226.1l-1.8,0.4
			c-0.9,0.2-1.6-0.1-2-0.4c-0.4-0.3-1-0.8-1.2-1.7c-0.2-0.9,0.1-1.6,0.4-2c0.3-0.4,0.8-1,1.7-1.2l1.3-0.3c0,0,0,0,0,0l61.8-13.7
			c0.2,0,0.4-0.1,0.6-0.1c0.6,0,1.1,0.2,1.4,0.4c0.4,0.3,1,0.8,1.2,1.7c0.2,0.9-0.1,1.6-0.4,2c-0.3,0.4-0.8,1-1.7,1.2L198.6,226.1z
			 M254.6,241.1c-8.4,3.3-16.5,7.3-24.2,12.2c-4.8,3.1-9.5,6.4-13.9,10l-4.6-20.8l41-9.1L254.6,241.1z M37.1,310.1l85.7-55.5
			l30.6,47.3c-18.2,2.2-35.3,9.1-50.1,20.3c-13.9,10.5-25,24.6-32.2,40.4L37.1,310.1z M481.1,439.1c0,28.4-23.1,51.6-51.6,51.6H70.5
			c-28.4,0-51.6-23.1-51.6-51.6s23.1-51.6,51.6-51.6c1.2,0,2.6,0.1,4.2,0.2c4.5,0.4,8.5-2.4,9.8-6.7c10.7-35.8,44.3-60.8,81.7-60.8
			c6.8,0,13.6,0.8,20.2,2.4c4.3,1,8.7-1,10.7-5c20.4-41.2,61.6-66.9,107.6-66.9c66.1,0,120,53.8,120,120c0,2.1-0.1,4.4-0.2,7
			c-0.3,5.2,3.6,9.6,8.8,10C460.1,389.5,481.1,412.1,481.1,439.1z M443.4,364.8c-0.5-12.6-2.7-24.8-6.4-36.4l34-96.9
			c6,1.5,12,2.5,18.2,2.9L443.4,364.8z M448.1,200.7l8.5-6.3c4.2,3.7,9.1,6.6,14.5,8.5c4.8,1.7,9.8,2.5,14.8,2.5
			c0.6,0,1.2,0,1.8-0.1l2.6,10.2C475.2,214.5,460.6,209.4,448.1,200.7z"/>
	</g>
</g>
<g>
	<g>
		<path d="M293.6,380.9C293.5,380.9,293.5,380.9,293.6,380.9c-15-21.2-38.9-33.8-65.2-33.8c-43.9,0-79.6,35.7-79.6,79.6
			c0,5.2,4.2,9.5,9.5,9.5s9.5-4.2,9.5-9.5c0-33.5,27.2-60.7,60.7-60.7c21.5,0,40.9,11,52,29.4c1.9,3.1,5.4,4.9,9,4.5
			c1.4-0.1,2.8-0.2,4.2-0.2c24.2,0,43.8,19.7,43.8,43.8c0,5.2,4.2,9.5,9.5,9.5s9.5-4.2,9.5-9.5C356.3,409,328.2,380.9,293.6,380.9z"
			/>
	</g>
</g>
<path class="st0" d="M351.1,94.3c17.8-11.3,28.1-30.6,28.6-50.7c7.2,10.3,13.9,23.6,16.3,39.4c3.7,24.7-4.1,50.5-23,76.8l-33.6-2.9
	L336,150C325.8,130.2,332.3,106.2,351.1,94.3z"/>
<path class="st1" d="M189,171.6c-5-4.6-7.4-14-5.4-20.9l11.2-38.7l6.7,30.2c1,4.4,4.9,7.4,9.2,7.4c0.7,0,1.4-0.1,2.1-0.2
	c5.1-1.1,8.3-6.2,7.2-11.3l-6.7-30.2l26.5,30.4c4.7,5.4,6.5,14.9,3.9,21.2c-2.8,6.8-3.3,15-1.5,23.1l1.9,8.6l-42,9.3l-1.9-8.6
	C198.3,183.8,194.4,176.6,189,171.6z"/>
</svg>
