<svg xmlns="http://www.w3.org/2000/svg" viewBox="0 0 2499.99 2499.95"><defs><style>.cls-1{fill:#de4c36;}</style></defs><g id="Layer_2" data-name="Layer 2"><g id="Layer_1-2" data-name="Layer 1"><path class="cls-1" d="M2452.85,1138.61,1361.33,47.15c-62.82-62.87-164.78-62.87-227.68,0L907,273.81l287.53,287.53c66.82-22.58,143.44-7.44,196.7,45.83a191.39,191.39,0,0,1,45.43,197.91l277.1,277.11c67-23.1,144.39-8.16,197.94,45.47,74.83,74.81,74.83,196,0,270.9A191.6,191.6,0,0,1,1599,1190.2L1340.59,931.78l0,680.05a193.8,193.8,0,0,1,50.66,36.23c74.83,74.81,74.83,196.06,0,271s-196.15,74.83-270.9,0-74.83-196.15,0-271a192,192,0,0,1,62.71-41.8V919.88a189.2,189.2,0,0,1-62.71-41.81c-56.7-56.62-70.33-139.81-41.28-209.43L795.61,385.17,47.17,1133.56a161.06,161.06,0,0,0,0,227.76L1138.71,2452.8c62.84,62.87,164.78,62.87,227.7,0L2452.84,1366.38c62.87-62.89,62.87-164.91,0-227.77"/></g></g></svg>