<svg xmlns="http://www.w3.org/2000/svg" viewBox="0 0 2500 2500"><g id="Layer_2" data-name="Layer 2"><g id="Layer_1-2" data-name="Layer 1"><path d="M0,1250Q0,732.43,366.21,366.21T1250,0q517.57,0,883.79,366.21T2500,1250q0,517.57-366.21,883.79T1250,2500q-517.57,0-883.79-366.21T0,1250Zm136.72,0q0,459,327.15,786.13T1250,2363.28q459,0,786.13-327.15T2363.28,1250q0-459-327.15-786.13T1250,136.72q-459,0-786.13,327.15T136.72,1250Zm351.56,268.55q-9.76-9.77,0-19.53,19.53-19.53,48.83-14.65t34.18,9.77q34.17,14.64,75.68,65.92t65.92,70.8q117.18,97.65,239.25,14.65,9.78-34.18,31.74-58.6t41.51-34.18q19.53-9.76,68.36-29.3-161.14-14.64-261.23-56.15t-158.7-105q-78.12-87.88-95.21-229.49t22-258.79a429.91,429.91,0,0,1,83-131.84q-39.06-122.07,14.65-278.32,156.24,9.76,283.2,107.43,244.14-63.48,507.81-4.89,34.18-24.4,105-61t178.22-41.51q19.53,53.72,26.86,126.95T1792,727.53q112.29,117.19,117.18,312.5,0,156.26-53.71,258.79T1665,1469.72q-92.77,44-244.14,53.71,68.37,34.17,100.1,70.8T1562.5,1709v153.81l4.88,148.92a172.49,172.49,0,0,0,34.18,41.51q19.53,17.09,34.18,24.41t9.76,22q-4.87,14.64-39.06,14.65-83,0-131.83-58.6-14.65-24.42-14.65-58.59V1762.69q0-39.06-19.53-56.15t-39.06-22v307.62q0,83,19.53,107.42t24.41,48.83q4.89,4.89-7.32,7.32t-41.51-7.32q-63.46-14.66-87.89-65.92t-24.41-109.86V1669.92H1220.7v302.73A268.5,268.5,0,0,1,1196.29,2085q-34.18,68.36-127,73.24-14.64-4.87-14.64-9.76,4.88-4.89,29.29-48.83,4.89-9.77,12.21-39.06t7.33-68.36V1684.57q-19.53,4.88-36.63,22t-17.09,56.16v234.37q0,34.17-14.64,58.59-44,58.61-131.84,58.6-34.17,0-39.06-14.65-4.89-9.77,2.44-17.09t22-17.09q14.64-9.76,19.53-14.65,19.53-14.64,29.29-39.06,14.65-19.53,7.33-102.54t-2.45-107.42q-126.95,44-258.79-44-39.06-39.06-78.12-112.3-29.29-53.71-117.19-127Z"/></g></g></svg>