<svg xmlns="http://www.w3.org/2000/svg" viewBox="0 0 1766.69 2003.61"><defs><style>.cls-1{fill:#e44d26;}.cls-2{fill:#f16529;}.cls-3{fill:#ebebeb;}.cls-4{fill:#fff;}</style></defs><g id="Layer_2" data-name="Layer 2"><g id="Layer_1-2" data-name="Layer 1"><path class="cls-1" d="M1766.69,0l-161,1803.05L882.26,2003.61,160.78,1803.32,0,0Z"/><path class="cls-2" d="M883.34,1850.3,1468,1688.23,1605.48,147.44H883.34Z"/><path class="cls-3" d="M570.46,589.79H883.34V368.62H328.75L334,428l54.37,609.48H883.34V816.27H590.68ZM620.31,1148h-222l31,347.27,453.06,125.77,1-.28V1390.68l-1,.25-246.32-66.51L620.31,1148Z"/><path class="cls-4" d="M882.58,1037.44h272.35l-25.68,286.85-246.67,66.58V1621L1336,1495.3l3.32-37.36,52-582.28,5.4-59.39H882.58v221.17Zm0-448.19v.54h534.23l4.44-49.71L1431.33,428l5.28-59.34h-554V589.26Z"/></g></g></svg>