<svg xmlns="http://www.w3.org/2000/svg" viewBox="0 0 667.4 228.74"><defs><style>.cls-1{fill:#3574d4;}</style></defs><g id="Layer_2" data-name="Layer 2"><g id="Layer_1-2" data-name="Layer 1"><path class="cls-1" d="M77.41,37.31H32.64V7h108.2V37.31H107.73v87.21A53.87,53.87,0,0,1,0,124.52H30.31a23.55,23.55,0,0,0,47.1,0Z"/><path class="cls-1" d="M244.37,174.88H210.8l-9.1-22.62h-59l-9.33,22.62H99.81L171.86,0ZM154.84,122h34.51L172.09,79.28Z"/><path class="cls-1" d="M264.43,181.88,192.15,7h33.57l38.71,95.61L303.14,7h33.57Z"/><path class="cls-1" d="M417.4,7V37.31H364.94V63.89h88.6V94.2h-88.6v50.37h88.6v30.31H334.62V7Z"/><path class="cls-1" d="M459.37,174.88V7H520c46.64,0,77.18,32.88,77.18,84.18,0,51.07-30.54,83.71-77.18,83.71Zm30.32-30.31H520c29.61,0,46.64-21.69,46.64-53.63s-17-53.63-46.64-53.63H489.69Z"/><path class="cls-1" d="M312.27,228.2V188.25l-22.38,31.94-22.7-32v40h-3.5V177.06l26.2,37,25.88-37V228.2Z"/><path class="cls-1" d="M345.38,228.74a25,25,0,0,1-12.82-3.45,25.92,25.92,0,0,1,0-44.7,25.5,25.5,0,0,1,25.65,0,25.93,25.93,0,0,1,0,44.7A25,25,0,0,1,345.38,228.74Zm0-48a21.26,21.26,0,0,0-11,3,22.51,22.51,0,0,0-8.05,8.08,22.3,22.3,0,0,0,0,22.31,22.46,22.46,0,0,0,8.05,8.09,21.86,21.86,0,0,0,22.07,0,22.19,22.19,0,0,0,8-8.09,22.57,22.57,0,0,0,0-22.31,22.24,22.24,0,0,0-8-8.08A21.33,21.33,0,0,0,345.38,180.71Z"/><path class="cls-1" d="M408,204.73H378.1V228.2h-3.57V177.68h3.57v23.47H408V177.68h3.5V228.2H408Z"/><path class="cls-1" d="M424.59,215.37l-6,12.83h-3.89l23.79-51.14L461,228.2h-3.81l-5.67-12.83Zm13.75-29.69-12.12,26.2h23.7Z"/><path class="cls-1" d="M512.81,228.2V188.25l-22.39,31.94-22.7-32v40h-3.49V177.06l26.19,37,25.88-37V228.2Z"/><path class="cls-1" d="M572.19,228.2V188.25L549.8,220.19l-22.69-32v40h-3.5V177.06l26.19,37,25.89-37V228.2Z"/><path class="cls-1" d="M588.82,215.37l-6,12.83H579l23.79-51.14L625.2,228.2h-3.81l-5.67-12.83Zm13.76-29.69-12.13,26.2h23.71Z"/><path class="cls-1" d="M642.92,228.2H628.38V177.68h14.54a24.83,24.83,0,0,1,10,2,23,23,0,0,1,7.93,5.63,25.09,25.09,0,0,1,4.89,8,27.58,27.58,0,0,1,0,19.12,25.91,25.91,0,0,1-4.89,8.09,22.58,22.58,0,0,1-7.93,5.71A24.83,24.83,0,0,1,642.92,228.2Zm-11-3.5h11a19.59,19.59,0,0,0,15.31-6.6,20.39,20.39,0,0,0,4.16-6.88,24.12,24.12,0,0,0,1.44-8.36,23.88,23.88,0,0,0-1.44-8.28,20.39,20.39,0,0,0-4.16-6.88,20,20,0,0,0-15.31-6.45h-11Z"/></g></g></svg>