<svg xmlns="http://www.w3.org/2000/svg" viewBox="0 0 20.65 19.81"><defs><style>.cls-1{fill:#0868ac;}</style></defs><g id="Layer_2" data-name="Layer 2"><g id="Layer_1-2" data-name="Layer 1"><path class="cls-1" d="M1.32,4.72a8.73,8.73,0,0,0-.21,8.87l.1.2.07.13V14l.07.13.14.23.07.13.16.24.06.1.23.33v.06l.21.27.08.1.2.23.07.09.26.3h0l.27.28.08.09.22.2.08.08.3.27h.05l.27.23.1.09.22.17.12.1.25.18L5,18l.24.16.1.07.38.23.11.06.28.16.16.08.21.11h.09l.32.15H7l.37.16h.1l.35.14h0l.39.13h.1l.4.12c8.87,1.62,11.45-5.34,11.45-5.34-2.16,2.82-6,3.57-9.65,2.74l-.4-.11H10l-.39-.13H9.52l-.34-.13h-.1l-.37-.15H8.63l-.31-.14-.1,0L8,16.14l-.17-.08L7.62,16,7.52,16l-.38-.23L7,15.6l-.27-.18-.08-.06-.26-.19-.11-.08-.23-.18,0-.08-.28-.25h0l-.3-.28-.09-.08L5.06,14,5,13.9l-.27-.28-.28-.32-.07-.08L4.17,13l-.07-.1-.23-.3A9.36,9.36,0,0,1,2.76,2.9M7,2.5A6.41,6.41,0,0,0,6.8,9a9.05,9.05,0,0,0,.59,1,5.15,5.15,0,0,0,.68.86l.3.3.08.07.3.29h0l.35.29.08.07.37.27.26.17.28.17h0l.24.14h.09l.17.09h0l.35.17H11l.3.12h.12l.27.1h.12a1.9,1.9,0,0,0,.39.11c6.85,1.13,8.43-4.14,8.43-4.14a6.52,6.52,0,0,1-7.13,2.27l-.39-.11H13l-.27-.09h-.12L12.33,11h-.08L12,10.89l-.18-.1h-.1l-.28-.16-.28-.17-.26-.17L10.51,10l-.08-.07a8.21,8.21,0,0,1-2.8-4,6.25,6.25,0,0,1,.48-5M11.8.82a4,4,0,0,0-.31,3.85,5.41,5.41,0,0,0,3.11,2.9l.17.06h.08l.24.07c3.79.73,4.8-1.94,5.08-2.33-.9,1.29-2.4,1.6-4.26,1.15l-.45-.13c-.18-.07-.35-.14-.53-.23A5.71,5.71,0,0,1,14,5.63C12.33,4.37,11.29,2,12.39,0"/></g></g></svg>