<svg xmlns="http://www.w3.org/2000/svg" viewBox="0 0 449.24 432.78"><defs><style>.cls-1{fill:#0868ac;}</style></defs><g id="Layer_2" data-name="Layer 2"><g id="Layer_1-2" data-name="Layer 1"><path class="cls-1" d="M28.53,101.64C-11.24,158.81-6.3,233.19,24.09,293.93c.72,1.46,1.48,2.88,2.23,4.32.47.91.92,1.84,1.42,2.73.28.54.59,1.07.89,1.58.51,1,1.05,1.89,1.58,2.83.94,1.67,1.91,3.32,2.9,5,.55.9,1.09,1.81,1.65,2.72,1.1,1.77,2.22,3.52,3.37,5.27.48.74.94,1.49,1.43,2.21,1.59,2.37,3.21,4.72,4.88,7l.13.19c.27.37.56.73.83,1.1,1.45,2,2.93,4,4.44,5.91.56.7,1.11,1.42,1.68,2.13q2.79,3.49,5.67,6.92T63,350.51a2.46,2.46,0,0,1,.22.25q6,6.47,12.33,12.56c.64.6,1.27,1.22,1.9,1.8q3.16,3,6.46,5.87c.37.33.74.64,1.1.95,1.9,1.64,3.84,3.28,5.78,4.88.79.64,1.6,1.27,2.39,1.9,1.59,1.28,3.2,2.53,4.82,3.77l2.58,2c1.79,1.31,3.58,2.61,5.4,3.88.67.47,1.31.94,2,1.39l.54.39c1.73,1.18,3.49,2.32,5.25,3.47.76.5,1.51,1,2.28,1.51,2.7,1.72,5.45,3.4,8.22,5l2.27,1.28c2,1.18,4.09,2.33,6.17,3.46,1.12.61,2.28,1.18,3.41,1.76,1.47.77,2.93,1.55,4.42,2.3.34.16.69.32,1,.49.6.29,1.21.57,1.81.87q4.2,2,8.48,3.91,4,1.76,8.16,3.39c.66.27,1.32.52,2,.78q4.31,1.67,8.67,3.19c2.84,1,5.7,1.91,8.59,2.81l2.07.62a83.32,83.32,0,0,0,8.86,2.5c192.37,35.08,248.24-115.6,248.24-115.6C391.48,373,308.18,389.15,229.26,371.2c-3-.67-5.89-1.6-8.81-2.47q-5.37-1.59-10.67-3.42l-1.17-.42c-2.5-.89-5-1.82-7.47-2.78l-2.1-.82q-4.06-1.6-8.07-3.36c-.55-.23-1.08-.48-1.62-.71q-4.41-2-8.78-4.11c-1.77-.87-3.51-1.78-5.26-2.68-1.17-.62-2.36-1.2-3.52-1.85q-3.19-1.71-6.31-3.54c-.71-.39-1.43-.77-2.13-1.18q-4.15-2.46-8.23-5c-.74-.48-1.48-1-2.22-1.48q-3-1.9-5.85-3.89c-.64-.43-1.26-.9-1.89-1.32q-2.79-2-5.53-4c-.83-.62-1.65-1.24-2.45-1.86q-3.65-2.81-7.22-5.68-3.15-2.58-6.22-5.24l-.68-.57q-3.32-2.92-6.54-5.95c-.62-.59-1.23-1.17-1.84-1.77-1.59-1.5-3.15-3-4.69-4.6-.62-.62-1.24-1.22-1.84-1.84-2-2-3.88-4-5.76-6.09l-.29-.3q-3-3.27-5.85-6.65c-.51-.62-1-1.22-1.53-1.82q-2.13-2.58-4.2-5.2c-.52-.64-1-1.28-1.54-1.92-1.66-2.15-3.28-4.29-4.86-6.47C40.3,212.41,24.56,130,59.58,62.27"/><path class="cls-1" d="M152,53.48c-28.76,41.39-27.2,96.8-4.76,140.58A183.77,183.77,0,0,0,160,215.3c4.31,6.17,9.09,13.52,14.81,18.49,2.08,2.29,4.24,4.51,6.46,6.7.56.57,1.13,1.12,1.7,1.68q3.21,3.14,6.59,6.13c.1.07.18.16.27.23l.07.06c2.49,2.19,5.07,4.3,7.7,6.37l1.74,1.37c2.63,2,5.31,4,8.06,5.88l.23.18c1.21.84,2.45,1.62,3.68,2.42.59.39,1.15.8,1.74,1.15,2,1.26,3.95,2.49,6,3.66l.85.5c1.74,1,3.51,2,5.28,2.94.62.35,1.24.65,1.88,1,1.22.64,2.44,1.29,3.68,1.91l.56.25c2.54,1.25,5.09,2.46,7.7,3.59.56.25,1.14.47,1.7.7,2.09.89,4.19,1.75,6.31,2.56l2.7,1c1.93.72,3.86,1.37,5.8,2,.88.28,1.74.57,2.63.84a64.88,64.88,0,0,0,8.38,2.43c148.51,24.6,182.8-89.75,182.8-89.75-30.91,44.52-90.76,65.75-154.63,49.18q-5.52-1.45-10.94-3.25-4.31-1.39-8.54-3-3.19-1.23-6.33-2.56c-.57-.24-1.15-.46-1.71-.72q-3.91-1.71-7.74-3.6c-1.31-.64-2.6-1.31-3.89-2l-2.24-1.15q-2.47-1.35-4.91-2.77l-1.18-.67c-2-1.18-4-2.38-5.95-3.63-.61-.39-1.19-.8-1.8-1.2q-1.94-1.26-3.86-2.55-4.08-2.85-8-5.87c-.61-.48-1.22-.95-1.81-1.43-28-22.07-50.12-52.23-60.66-86.44-11-35.47-8.66-75.3,10.47-107.61"/><path class="cls-1" d="M255.84,17.49c-17,25-18.62,56-6.86,83.51,12.41,29.25,37.84,52.21,67.51,63.09,1.22.46,2.45.86,3.68,1.28.54.16,1.08.35,1.63.51a46.32,46.32,0,0,0,5.29,1.53c82,15.84,104.24-42.08,110.17-50.61-19.49,28.06-52.23,34.79-92.41,25-3.28-.84-6.53-1.84-9.72-3a119.89,119.89,0,0,1-11.54-4.8,118.94,118.94,0,0,1-20.24-12.35C267.4,94.42,245.07,42.38,268.53,0"/></g></g></svg>