<svg xmlns="http://www.w3.org/2000/svg" viewBox="0 0 2500 2500"><defs><style>.cls-1{fill:#f7df1e;}</style></defs><g id="Layer_2" data-name="Layer 2"><g id="Layer_1-2" data-name="Layer 1"><path class="cls-1" d="M0,0H2500V2500H0Z"/><path d="M657.34,2089.18,848.65,1973.4c36.92,65.44,70.49,120.81,151,120.81,77.19,0,125.88-30.2,125.88-147.66V1147.74h234.93v802.13c0,243.33-142.64,354.1-350.74,354.1-187.94,0-297-97.34-352.42-214.81M1488.1,2064l191.28-110.75c50.37,82.24,115.82,142.65,231.6,142.65,97.35,0,159.42-48.67,159.42-115.8,0-80.55-63.77-109.08-171.17-156.06l-58.72-25.19c-169.5-72.14-281.94-162.77-281.94-354.07,0-176.22,134.25-310.47,344-310.47,149.35,0,256.76,52,333.94,188l-182.93,117.48c-40.28-72.16-83.89-100.69-151-100.69-68.81,0-112.44,43.64-112.44,100.69,0,70.47,43.63,99,144.31,142.65l58.73,25.17c199.71,85.59,312.14,172.85,312.14,369.18,0,211.46-166.13,327.24-389.32,327.24-218.16,0-359.13-104-427.92-240"/></g></g></svg>