<svg xmlns="http://www.w3.org/2000/svg" viewBox="0 0 52.4 54.38"><defs><style>.cls-1{fill:#231f20;}</style></defs><g id="Layer_2" data-name="Layer 2"><g id="Layer_1-2" data-name="Layer 1"><path class="cls-1" d="M40.61,40.9a2.42,2.42,0,0,1-1.48.5A5.36,5.36,0,0,1,38,41.31a.8.8,0,0,1-.58-.49,20.41,20.41,0,0,1-1.22-5.18q-.7-4.32-1.34-9.9Q33.49,8.67,32.72,8.33q-.63,1.39-2,5.27T27.66,23.7q-1.92,6.69-2.91,9.23A8,8,0,0,1,23,36a6.66,6.66,0,0,1-1.14.79,2.42,2.42,0,0,1-1.13.38,1.29,1.29,0,0,1-.76-.15,2.41,2.41,0,0,1-.41-.9q-.22-.87-1.1-5.45c-.58-3-1-5.79-1.34-8.23L16.77,20a74.56,74.56,0,0,0-1.34-8.44q-1.11,1-2.1,4.39c-.66,2.27-1.41,5.49-2.27,9.64q-1.22,4.83-3,15.72a1.64,1.64,0,0,1-.87,1.17A2.76,2.76,0,0,1,5.76,43c-.62,0-1-.6-1-1.8s-.3-3.81-.79-7.81S3,25.91,2.62,22.88a99.89,99.89,0,0,0-2.21-12,20.07,20.07,0,0,1-.41-2A1.66,1.66,0,0,1,.84,7.48a3.3,3.3,0,0,1,1.84-.55c.31,0,.64,1.2,1,3.61s.72,5.43,1.1,9.08L5,21.54c.15,1.29.33,2.62.52,4Q6.58,34.47,6.7,36.74,7.86,30,9.32,23.17l.52-2.56a42.8,42.8,0,0,1,2.8-9.34q1.5-3.18,3.9-3.18c.5,0,1.06,1.31,1.69,3.93a71.13,71.13,0,0,1,1.45,9.17q.41,3.73,1.05,7.28a32.92,32.92,0,0,0,1.16,5c.24-.66.71-2.11,1.43-4.36s1.39-4.39,2-6.41A170.33,170.33,0,0,1,31.38,5.24a6.67,6.67,0,0,1,1.14-1.78,2.77,2.77,0,0,1,1.95-.55c.5,0,1.05,2.21,1.63,6.64s1.07,9.55,1.46,15.37c1,8.23,2,12.71,2.85,13.45A2.18,2.18,0,0,1,41.28,40C41.28,40.27,41.06,40.58,40.61,40.9Z"/><path class="cls-1" d="M50.6,51.94a5.65,5.65,0,0,1-4.78,2.44,9.61,9.61,0,0,1-4.19-.84,7,7,0,0,1-2.62-2,3.75,3.75,0,0,1-.87-2.21,1.49,1.49,0,0,1,.38-.93c.25-.31.45-.47.61-.47a.64.64,0,0,1,.55.29l.32.47a11.26,11.26,0,0,0,2.3,2.39,4.65,4.65,0,0,0,2.77.81,3.73,3.73,0,0,0,3.55-1.72,10.86,10.86,0,0,0,1-5.27c0-1.28-.09-2.88-.26-4.8s-.36-3.74-.56-5.44c0-.55-.09-1.09-.17-1.63s-.14-1.09-.17-1.64c-.24-2.63-.63-5.72-1.17-9.25a46.35,46.35,0,0,1-.58-4.89,2.27,2.27,0,0,1,.17-1.08c.12-.18.43-.26.93-.26.7,0,1.24.47,1.61,1.42a16.62,16.62,0,0,1,.78,4.34q.24,3.49,1.05,10.07Q52.41,42.46,52.4,44.6,52.4,49.49,50.6,51.94ZM48.5,5.18a3.18,3.18,0,0,1-2-.67A5.86,5.86,0,0,1,45.13,3a2.72,2.72,0,0,1-.53-1.22A1.73,1.73,0,0,1,45.21.58,1.83,1.83,0,0,1,46.47,0a.93.93,0,0,1,.72.38,6.35,6.35,0,0,1,.73,1.13,4.42,4.42,0,0,0,.82,1.23l.72.72c.37.37.56.62.56.73C50,4.85,49.51,5.18,48.5,5.18Z"/></g></g></svg>