<svg xmlns="http://www.w3.org/2000/svg" xmlns:xlink="http://www.w3.org/1999/xlink" viewBox="0 0 2924.68 2366.79"><defs><style>.cls-1{fill:url(#linear-gradient);}.cls-2{fill:url(#linear-gradient-2);}.cls-3{fill:#f9ffe9;}.cls-37,.cls-4,.cls-6{fill:#fff;}.cls-4{opacity:0.65;}.cls-5{fill:url(#linear-gradient-3);}.cls-7{fill:url(#linear-gradient-4);}.cls-8{fill:url(#linear-gradient-5);}.cls-9{fill:url(#linear-gradient-6);}.cls-10{fill:url(#linear-gradient-7);}.cls-11{fill:url(#linear-gradient-8);}.cls-12{fill:url(#linear-gradient-9);}.cls-13{fill:url(#linear-gradient-10);}.cls-14{fill:url(#linear-gradient-11);}.cls-15{fill:url(#linear-gradient-12);}.cls-16{fill:url(#linear-gradient-13);}.cls-17{fill:url(#linear-gradient-14);}.cls-18{fill:url(#linear-gradient-15);}.cls-19{fill:url(#linear-gradient-16);}.cls-20{fill:url(#linear-gradient-17);}.cls-21{fill:url(#linear-gradient-18);}.cls-22{fill:url(#linear-gradient-19);}.cls-23{fill:url(#linear-gradient-20);}.cls-24{fill:url(#linear-gradient-21);}.cls-25{fill:url(#linear-gradient-22);}.cls-26{fill:url(#linear-gradient-23);}.cls-27{fill:url(#linear-gradient-24);}.cls-28{fill:url(#linear-gradient-25);}.cls-29{fill:url(#linear-gradient-26);}.cls-30{fill:url(#linear-gradient-27);}.cls-31{fill:url(#linear-gradient-28);}.cls-32{fill:url(#linear-gradient-29);}.cls-33{fill:url(#linear-gradient-30);}.cls-34{fill:url(#linear-gradient-31);}.cls-35{fill:url(#linear-gradient-32);}.cls-36{fill:url(#linear-gradient-33);}.cls-37{opacity:0.7;}.cls-38{fill:url(#linear-gradient-34);}.cls-39{fill:url(#linear-gradient-35);}.cls-40{fill:url(#linear-gradient-36);}.cls-41{fill:url(#linear-gradient-37);}.cls-42{fill:url(#linear-gradient-38);}.cls-43{fill:url(#linear-gradient-39);}.cls-44{fill:url(#linear-gradient-40);}.cls-45{fill:url(#linear-gradient-41);}.cls-46{fill:url(#linear-gradient-42);}.cls-47{fill:url(#linear-gradient-43);}.cls-48{fill:url(#linear-gradient-44);}.cls-49{fill:url(#linear-gradient-45);}.cls-50{fill:url(#linear-gradient-46);}.cls-51{fill:url(#linear-gradient-47);}.cls-52{fill:url(#linear-gradient-48);}.cls-53{fill:url(#linear-gradient-49);}.cls-54{fill:url(#linear-gradient-50);}.cls-55{fill:url(#linear-gradient-51);}.cls-56{fill:url(#linear-gradient-52);}.cls-57{fill:url(#linear-gradient-53);}.cls-58{fill:url(#linear-gradient-54);}.cls-59{fill:#ff653f;}.cls-60{fill:url(#linear-gradient-55);}.cls-61{fill:url(#linear-gradient-56);}.cls-62{fill:url(#linear-gradient-57);}.cls-63{fill:url(#linear-gradient-58);}.cls-64{fill:url(#linear-gradient-59);}.cls-65{fill:url(#linear-gradient-60);}.cls-66{fill:url(#linear-gradient-61);}.cls-67{fill:url(#linear-gradient-62);}</style><linearGradient id="linear-gradient" x1="1730.72" y1="1730.98" x2="2220.82" y2="682.71" gradientUnits="userSpaceOnUse"><stop offset="0" stop-color="#09005d"/><stop offset="1" stop-color="#1a0f91"/></linearGradient><linearGradient id="linear-gradient-2" x1="1518.19" y1="-161.72" x2="1518.19" y2="947.81" xlink:href="#linear-gradient"/><linearGradient id="linear-gradient-3" x1="1827.28" y1="3550.89" x2="1657.1" y2="2720.44" xlink:href="#linear-gradient"/><linearGradient id="linear-gradient-4" x1="570.15" y1="-980.26" x2="-4.94" y2="452.9" gradientTransform="translate(2205.08 840.07) rotate(-16.79)" gradientUnits="userSpaceOnUse"><stop offset="0" stop-color="#4042e2"/><stop offset="1" stop-color="#4f52ff"/></linearGradient><linearGradient id="linear-gradient-5" x1="244.92" y1="-1110.77" x2="-330.15" y2="322.36" xlink:href="#linear-gradient-4"/><linearGradient id="linear-gradient-6" x1="153.15" y1="-1147.6" x2="-421.93" y2="285.54" xlink:href="#linear-gradient-4"/><linearGradient id="linear-gradient-7" x1="195.21" y1="-1130.72" x2="-379.87" y2="302.41" xlink:href="#linear-gradient-4"/><linearGradient id="linear-gradient-8" x1="477.66" y1="-1017.37" x2="-97.41" y2="415.74" xlink:href="#linear-gradient-4"/><linearGradient id="linear-gradient-9" x1="164.12" y1="-1143.2" x2="-410.96" y2="289.93" xlink:href="#linear-gradient-4"/><linearGradient id="linear-gradient-10" x1="163.44" y1="-1143.48" x2="-411.64" y2="289.67" xlink:href="#linear-gradient-4"/><linearGradient id="linear-gradient-11" x1="310.82" y1="-1084.32" x2="-264.25" y2="348.8" xlink:href="#linear-gradient-4"/><linearGradient id="linear-gradient-12" x1="389.75" y1="-1052.65" x2="-185.32" y2="380.47" xlink:href="#linear-gradient-4"/><linearGradient id="linear-gradient-13" x1="193.74" y1="-1131.32" x2="-381.34" y2="301.83" xlink:href="#linear-gradient-4"/><linearGradient id="linear-gradient-14" x1="653.95" y1="-946.63" x2="78.86" y2="486.52" xlink:href="#linear-gradient-4"/><linearGradient id="linear-gradient-15" x1="548.04" y1="-989.17" x2="-27.06" y2="444.01" xlink:href="#linear-gradient-4"/><linearGradient id="linear-gradient-16" x1="953.58" y1="-808.48" x2="378.5" y2="624.67" xlink:href="#linear-gradient-4"/><linearGradient id="linear-gradient-17" x1="1013.08" y1="-784.61" x2="437.99" y2="648.54" xlink:href="#linear-gradient-4"/><linearGradient id="linear-gradient-18" x1="1016.04" y1="-783.41" x2="440.96" y2="649.72" xlink:href="#linear-gradient-4"/><linearGradient id="linear-gradient-19" x1="962.33" y1="-804.96" x2="387.26" y2="628.17" xlink:href="#linear-gradient-4"/><linearGradient id="linear-gradient-20" x1="839.74" y1="-854.15" x2="264.67" y2="578.97" xlink:href="#linear-gradient-4"/><linearGradient id="linear-gradient-21" x1="908.47" y1="-826.57" x2="333.4" y2="606.55" xlink:href="#linear-gradient-4"/><linearGradient id="linear-gradient-22" x1="998.79" y1="-790.33" x2="423.71" y2="642.8" xlink:href="#linear-gradient-4"/><linearGradient id="linear-gradient-23" x1="671.34" y1="-921.71" x2="96.27" y2="511.39" xlink:href="#linear-gradient-4"/><linearGradient id="linear-gradient-24" x1="759.36" y1="-886.39" x2="184.29" y2="546.72" xlink:href="#linear-gradient-4"/><linearGradient id="linear-gradient-25" x1="990.15" y1="-793.81" x2="415.07" y2="639.34" xlink:href="#linear-gradient-4"/><linearGradient id="linear-gradient-26" x1="465.96" y1="-1022.09" x2="-109.13" y2="411.07" xlink:href="#linear-gradient-4"/><linearGradient id="linear-gradient-27" x1="1531.97" y1="2816.85" x2="1622.22" y2="2048.38" gradientTransform="translate(810.87 -112.85) rotate(11.18)" xlink:href="#linear-gradient"/><linearGradient id="linear-gradient-28" x1="2385.4" y1="546.16" x2="2528.69" y2="546.16" gradientTransform="matrix(1, 0, 0, 1, 0, 0)" xlink:href="#linear-gradient-4"/><linearGradient id="linear-gradient-29" x1="2443.17" y1="516.67" x2="2646.15" y2="516.67" gradientTransform="matrix(1, 0, 0, 1, 0, 0)" xlink:href="#linear-gradient-4"/><linearGradient id="linear-gradient-30" x1="1256.59" y1="2784.52" x2="1346.84" y2="2016.05" gradientTransform="translate(810.87 -112.85) rotate(11.18)" xlink:href="#linear-gradient"/><linearGradient id="linear-gradient-31" x1="2305.59" y1="437.67" x2="2463.58" y2="437.67" gradientTransform="matrix(1, 0, 0, 1, 0, 0)" xlink:href="#linear-gradient-4"/><linearGradient id="linear-gradient-32" x1="2191.11" y1="422.25" x2="2498.5" y2="422.25" gradientTransform="matrix(1, 0, 0, 1, 0, 0)" xlink:href="#linear-gradient-4"/><linearGradient id="linear-gradient-33" x1="579.82" y1="-247.16" x2="401.94" y2="444.96" gradientTransform="translate(296.34 -256.06) rotate(45)" gradientUnits="userSpaceOnUse"><stop offset="0" stop-color="#fe7062"/><stop offset="1" stop-color="#ff928e"/></linearGradient><linearGradient id="linear-gradient-34" x1="1085.94" y1="-576.79" x2="808.41" y2="-241.27" gradientUnits="userSpaceOnUse"><stop offset="0" stop-color="#e1473d"/><stop offset="1" stop-color="#e9605a"/></linearGradient><linearGradient id="linear-gradient-35" x1="1148.89" y1="-524.72" x2="871.36" y2="-189.19" xlink:href="#linear-gradient-34"/><linearGradient id="linear-gradient-36" x1="1387.12" y1="38.82" x2="1634.56" y2="1439.05" xlink:href="#linear-gradient"/><linearGradient id="linear-gradient-37" x1="2039.19" y1="223.29" x2="758.76" y2="3188.81" gradientTransform="matrix(1, 0, 0, 1, 0, 0)" xlink:href="#linear-gradient-33"/><linearGradient id="linear-gradient-38" x1="1243.1" y1="1121" x2="1897" y2="-469.01" xlink:href="#linear-gradient"/><linearGradient id="linear-gradient-39" x1="1411.65" y1="1190.32" x2="2065.55" y2="-399.69" xlink:href="#linear-gradient"/><linearGradient id="linear-gradient-40" x1="1617.79" y1="1275.09" x2="2271.7" y2="-314.92" xlink:href="#linear-gradient"/><linearGradient id="linear-gradient-41" x1="1272.74" y1="1133.19" x2="1926.64" y2="-456.82" xlink:href="#linear-gradient"/><linearGradient id="linear-gradient-42" x1="1389.17" y1="1181.07" x2="2043.07" y2="-408.94" xlink:href="#linear-gradient"/><linearGradient id="linear-gradient-43" x1="1507.21" y1="1229.61" x2="2161.11" y2="-360.4" xlink:href="#linear-gradient"/><linearGradient id="linear-gradient-44" x1="1626.91" y1="1278.84" x2="2280.8" y2="-311.14" xlink:href="#linear-gradient"/><linearGradient id="linear-gradient-45" x1="1759.42" y1="1333.34" x2="2413.32" y2="-256.68" xlink:href="#linear-gradient"/><linearGradient id="linear-gradient-46" x1="3113.54" y1="2212.46" x2="2507.38" y2="2871.78" gradientTransform="translate(-2400.04)" xlink:href="#linear-gradient"/><linearGradient id="linear-gradient-47" x1="2916.79" y1="2261.42" x2="2970.63" y2="2261.42" gradientTransform="translate(-2400.04)" gradientUnits="userSpaceOnUse"><stop offset="0" stop-color="#febbba"/><stop offset="1" stop-color="#ff928e"/></linearGradient><linearGradient id="linear-gradient-48" x1="-271.64" y1="5541.31" x2="308.73" y2="4861.09" gradientTransform="translate(-2400.04)" gradientUnits="userSpaceOnUse"><stop offset="0" stop-color="#020039"/><stop offset="1" stop-color="#090056"/></linearGradient><linearGradient id="linear-gradient-49" x1="2977.56" y1="2087.44" x2="2371.4" y2="2746.77" gradientTransform="translate(-2400.04)" xlink:href="#linear-gradient"/><linearGradient id="linear-gradient-50" x1="2722.74" y1="2258.66" x2="2769.23" y2="2258.66" xlink:href="#linear-gradient-47"/><linearGradient id="linear-gradient-51" x1="-353.01" y1="5471.89" x2="227.36" y2="4791.67" xlink:href="#linear-gradient-48"/><linearGradient id="linear-gradient-52" x1="709.69" y1="829.13" x2="500.32" y2="1418.92" gradientUnits="userSpaceOnUse"><stop offset="0" stop-color="#4f52ff"/><stop offset="1" stop-color="#4042e2"/></linearGradient><linearGradient id="linear-gradient-53" x1="-8895.18" y1="449.47" x2="-9499.03" y2="1222.03" gradientTransform="translate(2875.33 -7937.83) rotate(-71.74)" xlink:href="#linear-gradient-47"/><linearGradient id="linear-gradient-54" x1="-8812.98" y1="513.72" x2="-9416.82" y2="1286.28" gradientTransform="translate(2875.33 -7937.83) rotate(-71.74)" xlink:href="#linear-gradient-47"/><linearGradient id="linear-gradient-55" x1="286.44" y1="678.87" x2="77.06" y2="1268.66" xlink:href="#linear-gradient-52"/><linearGradient id="linear-gradient-56" x1="-5609.26" y1="2080.3" x2="-5713.12" y2="2529.11" gradientTransform="translate(6447.31 206.63) rotate(15.02)" xlink:href="#linear-gradient-47"/><linearGradient id="linear-gradient-57" x1="2098.99" y1="676.4" x2="1719.48" y2="860.83" gradientTransform="matrix(-0.95, 0.33, 0.33, 0.95, 1959.15, -620.37)" xlink:href="#linear-gradient-47"/><linearGradient id="linear-gradient-58" x1="-5543.05" y1="-5891.01" x2="-5333.93" y2="-5891.01" gradientTransform="translate(8222.52 2894.54) rotate(-31.72)" xlink:href="#linear-gradient"/><linearGradient id="linear-gradient-59" x1="2119.47" y1="718.55" x2="1739.97" y2="902.98" gradientTransform="matrix(-0.95, 0.33, 0.33, 0.95, 1959.15, -620.37)" xlink:href="#linear-gradient-47"/><linearGradient id="linear-gradient-60" x1="1947.07" y1="1700.5" x2="2282.68" y2="1933.22" gradientTransform="matrix(-1, -0.01, -0.01, 1, 2401.81, -1019.8)" xlink:href="#linear-gradient-47"/><linearGradient id="linear-gradient-61" x1="1953.9" y1="1693.76" x2="2303.03" y2="1935.85" gradientTransform="matrix(-1, -0.01, -0.01, 1, 2401.81, -1019.8)" xlink:href="#linear-gradient-47"/><linearGradient id="linear-gradient-62" x1="204.23" y1="649.69" x2="-5.15" y2="1239.48" xlink:href="#linear-gradient-52"/></defs><g id="Layer_2" data-name="Layer 2"><g id="Illustration"><polygon class="cls-1" points="1295.48 1700.84 1234.74 2245.6 1939.45 2245.6 1847.66 1700.84 1295.48 1700.84"/><path class="cls-2" d="M111.7,358.68V1606.31a189.26,189.26,0,0,0,184.39,189.21c455.69,11.75,2049.5,40.25,2483.29,33.85a139.26,139.26,0,0,0,137.11-135.3c8.36-289.84,22-986.81-28.33-1310.39a143.3,143.3,0,0,0-137-121.3c-381.81-12.21-2071.35-51-2504.94-41.26A137.57,137.57,0,0,0,111.7,358.68Z"/><path class="cls-3" d="M190,352.61V1537.94a109.67,109.67,0,0,0,108,109.65l2419,29.88a106.72,106.72,0,0,0,108.32-106.31l4.05-1174.75a78,78,0,0,0-76.15-78.31l-2476.58-50A84.58,84.58,0,0,0,190,352.61Z"/><path class="cls-4" d="M2843.5,1726.1h-.06L189.93,1680.89a3.41,3.41,0,0,1-3.35-3.46,3.53,3.53,0,0,1,3.46-3.35l2653.52,45.22a3.4,3.4,0,0,1-.06,6.8Z"/><path class="cls-4" d="M1542.92,1781.32a31,31,0,1,1,31-31A31,31,0,0,1,1542.92,1781.32Zm0-55.22a24.21,24.21,0,1,0,24.21,24.21A24.24,24.24,0,0,0,1542.92,1726.1Z"/><path class="cls-5" d="M2091.24,2357.05H1059.85c-28,0-49.06-19.94-43.64-41.37l13.23-52.34c4-15.74,21.3-27.3,41.87-27.94l994.29-31c21.49-.67,40.51,10.73,45.2,27.09l23.85,83.37C2140.85,2336.49,2119.71,2357.05,2091.24,2357.05Z"/><path class="cls-6" d="M1615.07,2249.62a3.4,3.4,0,0,1,0-6.8l42.61-.63h0a3.41,3.41,0,0,1,0,6.81l-42.61.62Z"/><path class="cls-6" d="M1054.39,2328.24a3.27,3.27,0,0,1-.53,0,3.39,3.39,0,0,1-2.83-3.89l6.08-38.07a42.51,42.51,0,0,1,41.42-35.86l451.91-6.61h0a3.41,3.41,0,0,1,0,6.81l-451.91,6.6a35.72,35.72,0,0,0-34.8,30.13l-6.08,38.07A3.4,3.4,0,0,1,1054.39,2328.24Z"/><path class="cls-7" d="M2421.26,50.15c12.39.59,24.9,1.73,37.16,3.37a11.52,11.52,0,0,0,3.07-22.83c-12.92-1.74-26.09-2.93-39.14-3.55a11.52,11.52,0,1,0-1.09,23Z"/><path class="cls-8" d="M2098.53,154.65a11.52,11.52,0,0,0-16.29-.34c-9.42,9-18.56,18.57-27.17,28.35a11.52,11.52,0,0,0,12,18.64,11.4,11.4,0,0,0,5.31-3.42c8.18-9.3,16.87-18.36,25.81-26.94A11.52,11.52,0,0,0,2098.53,154.65Z"/><path class="cls-9" d="M1957.27,415a11.53,11.53,0,0,0-13,9.86c-1.76,12.93-3,26.09-3.62,39.11A11.53,11.53,0,0,0,1951.62,476a11.71,11.71,0,0,0,3.9-.48,11.5,11.5,0,0,0,8.17-10.46c.61-12.37,1.77-24.87,3.44-37.14A11.52,11.52,0,0,0,1957.27,415Z"/><path class="cls-10" d="M2032.31,230.08a11.51,11.51,0,0,0-16,3.27c-7.19,10.91-14,22.24-20.22,33.67a11.52,11.52,0,1,0,20.23,11c5.92-10.86,12.38-21.63,19.22-32A11.52,11.52,0,0,0,2032.31,230.08Z"/><path class="cls-11" d="M2323.68,56.54c12.22-2.19,24.66-3.88,37-5a11.36,11.36,0,0,0,2.28-.44,11.52,11.52,0,0,0-4.4-22.5c-13,1.2-26.07,3-38.93,5.28a11.52,11.52,0,1,0,4.06,22.68Z"/><path class="cls-12" d="M1984.41,318.31a11.52,11.52,0,0,0-14.84,6.72c-4.6,12.2-8.73,24.76-12.27,37.32a11.52,11.52,0,0,0,22.18,6.26c3.36-11.94,7.28-23.87,11.65-35.46A11.52,11.52,0,0,0,1984.41,318.31Z"/><path class="cls-13" d="M1952.43,515.24A11.52,11.52,0,0,0,1942,527.76c1.17,13,2.92,26,5.19,38.91a11.54,11.54,0,0,0,13.36,9.34c.45-.09.9-.19,1.33-.32a11.51,11.51,0,0,0,8-13c-2.16-12.23-3.82-24.67-4.94-37A11.53,11.53,0,0,0,1952.43,515.24Z"/><path class="cls-14" d="M2141.29,133.87a11.49,11.49,0,0,0,3.42-1.69c10-7.25,20.52-14.14,31.14-20.5A11.52,11.52,0,1,0,2164,91.91c-11.19,6.69-22.23,14-32.8,21.59a11.52,11.52,0,0,0,10.06,20.37Z"/><path class="cls-15" d="M2228.73,84.72q.58-.18,1.17-.42c11.4-4.81,23.16-9.2,35-13a11.52,11.52,0,0,0-6.88-22l-.24.07c-12.42,4-24.8,8.64-36.8,13.71a11.52,11.52,0,0,0,7.79,21.65Z"/><path class="cls-16" d="M1984.45,621.34a11.66,11.66,0,0,0-14.33-7.65l-.21.07a11.58,11.58,0,0,0-7.38,14.65c4,12.45,8.71,25.2,13.74,37.19a11.43,11.43,0,0,0,13.91,6.48,10.38,10.38,0,0,0,1.08-.59,11.5,11.5,0,0,0,6.18-15C1992.66,645,1988.27,633.17,1984.45,621.34Z"/><path class="cls-17" d="M2549.78,63.65a11.52,11.52,0,0,0-7.39-14.52c-5.94-1.93-12-3.77-18.07-5.47a11.52,11.52,0,1,0-6.24,22.17c5.76,1.63,11.54,3.37,17.18,5.21a11.51,11.51,0,0,0,14.52-7.39Z"/><path class="cls-18" d="M2357.6,921.93c-12.14-1.19-24.37-2.91-36.35-5.12a11.52,11.52,0,1,0-4.18,22.65c12.62,2.33,25.5,4.15,38.28,5.4a11.52,11.52,0,0,0,2.25-22.93Z"/><path class="cls-19" d="M2832.89,315.8a11.54,11.54,0,0,0,13.68,6,13,13,0,0,0,1.72-.67,11.53,11.53,0,0,0,5.33-15.4c-2.73-5.62-5.63-11.29-8.6-16.83a11.52,11.52,0,0,0-20.3,10.91C2827.55,305.08,2830.3,310.46,2832.89,315.8Z"/><path class="cls-20" d="M2885.24,452.74a11.52,11.52,0,0,0-10.35,12.58c1.18,12.14,1.86,24.47,2,36.64a11.52,11.52,0,1,0,23-.29c-.16-12.82-.88-25.79-2.12-38.58A11.52,11.52,0,0,0,2885.24,452.74Z"/><path class="cls-21" d="M2886.41,551.54a11.52,11.52,0,0,0-12.86,10c-1.52,12.09-3.58,24.27-6.12,36.21a11.51,11.51,0,0,0,8.86,13.66,11.37,11.37,0,0,0,5.72-.24,11.51,11.51,0,0,0,7.95-8.63c2.68-12.57,4.84-25.39,6.44-38.13A11.51,11.51,0,0,0,2886.41,551.54Z"/><path class="cls-22" d="M2808.64,741.47c-6.54,10.28-13.59,20.42-21,30.14A11.52,11.52,0,1,0,2806,785.55c7.76-10.23,15.19-20.9,22.07-31.72a11.52,11.52,0,0,0-19.45-12.36Z"/><path class="cls-23" d="M2673.39,876.56c-10.32,6.52-21,12.67-31.83,18.28a11.52,11.52,0,0,0,8.63,21.26,12,12,0,0,0,2-.81c11.38-5.91,22.66-12.38,33.52-19.25a11.52,11.52,0,0,0-12.31-19.48Z"/><path class="cls-24" d="M2748.47,816.52c-8.64,8.63-17.73,17-27,24.83A11.52,11.52,0,1,0,2736.3,859c9.79-8.26,19.36-17.06,28.45-26.14a11.52,11.52,0,0,0-16.28-16.3Z"/><path class="cls-25" d="M2865.8,648.17a11.51,11.51,0,0,0-14.75,6.92c-4.13,11.45-8.82,22.88-13.91,34a11.52,11.52,0,1,0,20.94,9.6c5.36-11.68,10.28-23.71,14.64-35.77A11.52,11.52,0,0,0,2865.8,648.17Z"/><path class="cls-26" d="M2493.24,940.85c-12.12,1.51-24.43,2.52-36.6,3a11.52,11.52,0,1,0,.91,23c12.81-.51,25.78-1.57,38.53-3.16a11.88,11.88,0,0,0,1.92-.4,11.52,11.52,0,0,0-4.76-22.46Z"/><path class="cls-27" d="M2586.9,918.63c-11.41,4.07-23.18,7.7-35.09,10.87a11.52,11.52,0,1,0,5.91,22.27q7.74-2.06,15.35-4.35c7.25-2.19,14.5-4.57,21.55-7.08a11.52,11.52,0,0,0-7.72-21.71Z"/><path class="cls-28" d="M2877.1,364a11.39,11.39,0,0,0-14.52-7.38,11.52,11.52,0,0,0-7.39,14.52c1,3.07,2,6.16,2.91,9.26,2.59,8.58,5,17.36,7,26.1A11.52,11.52,0,0,0,2879,415c.23-.05.47-.11.69-.18a11.51,11.51,0,0,0,7.87-13.67c-2.17-9.2-4.65-18.44-7.37-27.46Q2878.68,368.82,2877.1,364Z"/><path class="cls-29" d="M2263.21,901.9c-5.62-1.86-11.32-3.87-16.92-6a11.52,11.52,0,0,0-8.13,21.56c5.89,2.22,11.88,4.35,17.81,6.31a11.52,11.52,0,0,0,7.24-21.88Z"/><path class="cls-30" d="M2777.74,391.21l-64.84-9.15a285,285,0,0,0-48.72-74.45l-83.69,16.09-64,69.35L2573,515.32l-142.92-4.78-83.54,62.2,11.34,109.76-87.84-17-29.91,29.66-16.87,63.1a5.38,5.38,0,0,0,2.19,5.86L2290.6,808a5.4,5.4,0,0,0,6.25-.16l52.35-39.42a285.33,285.33,0,0,0,90.62,18.47l32.77,56.7a5.38,5.38,0,0,0,5.69,2.59l77.16-15a5.39,5.39,0,0,0,4.3-4.53l9.14-64.85a285.27,285.27,0,0,0,77.1-51.07l63.31,16.93a5.37,5.37,0,0,0,5.85-2.19l44-65.16a5.38,5.38,0,0,0-.17-6.25l-39.41-52.35A285.38,285.38,0,0,0,2738,511.13l56.7-32.77a5.38,5.38,0,0,0,2.59-5.69l-15-77.16A5.38,5.38,0,0,0,2777.74,391.21Z"/><path class="cls-31" d="M2476.77,554.77a60.61,60.61,0,0,1-76.57-21.95l-14.8,11A78.91,78.91,0,0,0,2528.69,514l-18.7-.67A60.45,60.45,0,0,1,2476.77,554.77Z"/><path class="cls-32" d="M2637.72,442a192.67,192.67,0,0,0-72.8-101.42l-6.3,6.83a183.54,183.54,0,0,1,70.28,97.27,186.22,186.22,0,0,1,4.57,18.49,185.18,185.18,0,0,1-146.34,217,186,186,0,0,1-39.26,3.4,4.61,4.61,0,0,0-4.7,4.51,4.5,4.5,0,0,0,.2,1.43,4.6,4.6,0,0,0,4.31,3.27c.78,0,1.56-.4,2.34-.4.4,0,.8-.42,1.2-.42h.42a194.28,194.28,0,0,0,31-2.07c2.08-.33,4.16-.48,6.23-.89a197.56,197.56,0,0,0,19.38-4.68,194.19,194.19,0,0,0,134.25-222.91A196.53,196.53,0,0,0,2637.72,442Z"/><path class="cls-33" d="M2290.93,632.62,2280.12,528l83.54-62.2,139.24,4.65a2.26,2.26,0,0,0,2.13-3.21l-54.92-118.93,64-69.36,83.7-16.08c-.79-.88-1.55-1.78-2.35-2.65L2612.35,197a5.4,5.4,0,0,0-2.19-5.85L2545,147.15a5.38,5.38,0,0,0-6.25.16l-52.35,39.41a285.32,285.32,0,0,0-90.62-18.46L2363,111.56a5.38,5.38,0,0,0-5.69-2.59l-77.15,15a5.39,5.39,0,0,0-4.31,4.54l-9.14,64.84a285.69,285.69,0,0,0-77.1,51.08l-63.31-16.94a5.38,5.38,0,0,0-5.85,2.2l-43.95,65.16a5.38,5.38,0,0,0,.16,6.25l39.41,52.35a285.32,285.32,0,0,0-18.46,90.62l-56.71,32.77a5.41,5.41,0,0,0-2.59,5.69l15,77.16a5.39,5.39,0,0,0,4.54,4.3l64.84,9.14a285.5,285.5,0,0,0,51.07,77.1l-.05.21,29.91-29.66,82.73,16A3.87,3.87,0,0,0,2290.93,632.62Z"/><path class="cls-34" d="M2333.78,488.12a61.66,61.66,0,0,1-4-7.12,60.66,60.66,0,0,1,29.07-80.59,62.41,62.41,0,0,1,8.39-3.21,60.47,60.47,0,0,1,76.36,71.47l18.7.66a79,79,0,1,0-149.2,19.51,80,80,0,0,0,5.91,10.31Z"/><path class="cls-35" d="M2494,292.72a193,193,0,0,0-145.7-29.64c-105.13,20.44-174.08,122.62-153.64,227.78a196.85,196.85,0,0,0,4.75,19.15,193.71,193.71,0,0,0,41.32,73.52,4.61,4.61,0,0,0,7.84-4.41,4.55,4.55,0,0,0-1-1.75,185.24,185.24,0,0,1-43.88-88.27c-19.47-100.17,46.14-197.48,146.35-217a183.81,183.81,0,0,1,138.79,28.24c1.12.75,2.21,1.56,3.31,2.34l6.3-6.83C2497,294.82,2495.56,293.75,2494,292.72Z"/><circle class="cls-6" cx="457.27" cy="229.69" r="196.19" transform="translate(-28.48 390.61) rotate(-45)"/><circle class="cls-36" cx="457.27" cy="229.69" r="189.67" transform="translate(-28.48 390.61) rotate(-45)"/><path class="cls-37" d="M613.66,152.9a2,2,0,0,0,.91-.21,2,2,0,0,0,.88-2.69A176.34,176.34,0,0,0,457.27,52.6a178.5,178.5,0,0,0-31.95,2.88,2,2,0,0,0,.72,3.94,174.23,174.23,0,0,1,31.23-2.81,172.35,172.35,0,0,1,154.6,95.19A2,2,0,0,0,613.66,152.9Z"/><circle class="cls-6" cx="453.13" cy="233.82" r="160.53" transform="translate(-32.62 388.9) rotate(-45)"/><path class="cls-38" d="M463.07,265l-18.17-.44a10.05,10.05,0,0,1-9.51-9.55l-6.65-128a8.28,8.28,0,0,1,2.62-6.59,8.68,8.68,0,0,1,6.93-2.18l31.29,2.18a9.6,9.6,0,0,1,6.77,3,9.71,9.71,0,0,1,2.55,7l-6.47,125.66A9.27,9.27,0,0,1,463.07,265Z"/><path class="cls-39" d="M435,296.3q6.81-6.49,19.13-6.3,12.69.21,19.27,6.68T480,315.57q0,12-6.71,18.55t-19.12,6.6q-12.17,0-19.05-6.83t-6.9-18.74Q428.21,302.82,435,296.3Z"/><path class="cls-40" d="M1572.53,21l-728,1223.19c-16,26.85,4.91,59.71,38.14,60l1443.08,11.87c33.35.28,54.86-32.45,39.16-59.57l-715.1-1235C1633.39-7,1589.32-7.19,1572.53,21Z"/><path class="cls-41" d="M1576.21,94.1,915.06,1205c-14.52,24.38,4.45,54.22,34.63,54.47l1310.6,10.79c30.3.25,49.84-29.47,35.57-54.11L1646.41,94.47C1631.48,68.68,1591.46,68.47,1576.21,94.1Z"/><path class="cls-42" d="M1462.56,855.31l-32.3.42v57.68l-55.74.93V856.45L1258.09,858V816.59l119.58-181.54,52.59.06V810.05l32.3-.33Zm-88-44.7V763.23q0-11.85.93-34.39t1.48-26.17h-1.48a216.31,216.31,0,0,1-16.5,30.65l-49.9,77.95Z"/><path class="cls-43" d="M1675.59,772.35q0,71.76-22.39,106.57t-69.39,35.7q-45.7.76-69.1-34.81t-23.41-106q0-73.38,22.78-108.19t69.73-34.65q45.54.06,68.67,36.12T1675.59,772.35Zm-128.47,1q0,50.82,8.42,72.73t28.27,21.6q19.45-.27,28.08-22.59t8.62-72.31q0-50.6-8.71-72.66t-28-22.06q-19.66,0-28.18,22.24T1547.12,773.35Z"/><path class="cls-44" d="M1897.11,849.66l-30.53.4v56.07l-52.67.88V850.74l-110,1.43V812l113-176.44,49.7.06V805.65l30.53-.31Zm-83.2-43.48V760.12q0-11.5.87-33.43t1.4-25.44h-1.4A211.79,211.79,0,0,1,1799.19,731l-47.14,75.76Z"/><path class="cls-45" d="M1336.8,1157.39l-86,2.76V1006.53l86-1.92v26.54l-54.22,1.31v33.66l50.46-1.32v26.55l-50.46,1.4v39.54l54.22-1.65Z"/><path class="cls-46" d="M1404.18,1096.86v58.37l-31.28,1V1003.8l42.95-1q29.93-.68,44.22,10.26t14.28,33.81a42.16,42.16,0,0,1-7.08,24q-7.11,10.61-20.11,16.88,33,50.18,42.95,64.73l-34.34,1.1-35-57.19Zm0-26.22,10.06-.27q14.77-.39,21.8-5.67t7-16.17q0-10.8-7.17-15.19t-22.24-4l-9.46.23Z"/><path class="cls-47" d="M1544.22,1092.89v57.86l-30.72,1V1000.66l42.19-.95q29.4-.66,43.43,10.18t14,33.51a42,42,0,0,1-7,23.75q-7,10.51-19.75,16.73,32.41,49.72,42.19,64.16l-33.73,1.08-34.37-56.69Zm0-26,9.89-.26q14.51-.39,21.4-5.62t6.9-16q0-10.7-7-15t-21.86-4l-9.29.22Z"/><path class="cls-48" d="M1780,1068.74q0,36.87-17.28,57.21t-49.78,21.43q-32.57,1-50.1-18.35t-17.56-56.83q0-37.4,17.61-57.54t50.24-20.81q32.57-.72,49.73,18.62T1780,1068.74Zm-103,2.8q0,25.05,9,37.46t27,11.85q35.85-1.08,35.82-51.26t-35.63-49.43q-17.91.44-27,13.37T1676.93,1071.54Z"/><path class="cls-49" d="M1843.44,1084.41v56.74l-29.55.95V993.94l40.58-.91q28.27-.63,41.79,10t13.49,32.87a41.84,41.84,0,0,1-6.69,23.3,46.9,46.9,0,0,1-19,16.39q31.2,48.81,40.59,63l-32.45,1L1859.13,1084Zm0-25.49,9.51-.25q14-.37,20.59-5.5t6.64-15.71q0-10.5-6.78-14.77t-21-3.94l-8.94.22Z"/><path class="cls-50" d="M521.89,2261.57s-6.28,35.54-9.35,70.72a24.23,24.23,0,0,0,23.18,26.26c46.85,1.95,147.06,5.74,183,4.14a7.89,7.89,0,0,0,6.94-10.8h0a17.68,17.68,0,0,0-9-9.52L551.12,2266.3Z"/><path class="cls-51" d="M516.75,2240.69l5,42.51s29,13.5,48.8-1.7l-12-47.37Z"/><path class="cls-52" d="M520.54,1441.53c-2.18,11.1-11.69,554,46.33,797.22a8.24,8.24,0,0,1-4.84,9.6,143.86,143.86,0,0,1-47.26,9.61,14.24,14.24,0,0,1-14.11-10.21c-16.58-56.44-96.07-339.24-106.43-609.38-11.59-301.86,0-10.28,0-10.28L401,1441.5Z"/><path class="cls-53" d="M331.48,2280.11s-10,17.94-19.67,65.61a14.79,14.79,0,0,0,13,17.71c15.47,1.52,39.29,3.48,58.36,3.35a14.74,14.74,0,0,0,14.6-16.45c-2.11-17.4-8.69-45.95-29-68.2Z"/><path class="cls-54" d="M322.7,2225.44l11.79,64.28s11.65,8.67,34.7,2.38l-5.62-69.16Z"/><path class="cls-55" d="M290.87,1458.18c-47.46,286.42,10.29,707.9,29.77,790.39a12.87,12.87,0,0,0,10.39,9.77c8.69,1.44,23,2.62,37.12-1.48a11.79,11.79,0,0,0,8.47-10.86c2.62-66.69-2.09-476.13,42.13-637.94a36.77,36.77,0,0,1,14.18-20.28l85.83-61,6.58-98.63Z"/><path class="cls-56" d="M713.39,1049.91c-7.21,51.31-14.83,63.1-20.74,63.41-18.84,1-15-114.71-83.93-173.22-43.51-37-102.93-40-149.56-35.7q32.63,117,65.27,234.07c9.5,23.31,50.92,117.6,144.63,146.21,19.08,5.83,47.48,14.5,73.9,3.15,52.13-22.41,76.58-114.24,53.27-229.22C785.27,1054.54,770.1,1050.2,713.39,1049.91Z"/><path class="cls-57" d="M696.79,849.83l8.62,48.76c13.86,59.64,15.18,109.35,8,151.32,11.91.5,24.4,1.33,37.43,2.62,16,1.58,31.22,3.67,45.41,6.08-7.5-60.65-47.86-161.38-47.86-161.38C724,862.1,721.13,885,696.79,849.83Z"/><path class="cls-58" d="M795.38,747.08A32.16,32.16,0,0,0,770,758.49l-61.52,72.9s-11.19-2.29-12.24-23.73-23.83-24-23.83-24,3.29,29.91,9.54,74.16c3.58,25.31,18.54,43.79,30.7,55l35.59-12.25c32.64-46.67,52.91-98.1,64.17-153Z"/><path class="cls-59" d="M215.57,945.4c4.1-1.08,32.12-30,36.34-30.83C321,901.41,493.35,855,608.72,940.1c.29,2.45.48,4.42.59,6a65,65,0,0,1,4.76,8.15A389.07,389.07,0,0,0,653,1015.1a39.58,39.58,0,0,0-8,11.37c-27.72,59.39-132.81,296.56-114.34,441.59A13.7,13.7,0,0,1,519,1483.48c-40.79,5.64-162.28,19.4-225-6.52a9.61,9.61,0,0,1-5.94-9c.42-29.1-.81-155.39-47.11-307.62a167.83,167.83,0,0,1-4.26-17.26c-.57,1.18-1.11,2.34-1.66,3.5Z"/><path class="cls-60" d="M321,901.41c-128.79,9.41-155.71,83-244.71,38L92,1077.25c33,36.45,82.83,61.27,145.62,70.58Z"/><path class="cls-61" d="M409,776.76c-22.07,44-31.28,88.79-34,130.51C379.67,909,443,953,485.41,910.44c-9.06-29.19-7.56-73.13-5.26-118.2Z"/><path class="cls-62" d="M523.88,661.11c1.21,2,32.86,151.24,32.86,151.24l-85.62,16.26-51-137S503.56,628.24,523.88,661.11Z"/><path class="cls-63" d="M452.79,703.76a12.55,12.55,0,0,0-1.94,10.87l20.9,73.16a12.4,12.4,0,0,0,1.38,3.14c3.38,5.39,15.51,21.71,31.86,8.31,13.94-11.41,26.91-21.72,38.53-24.28a12.5,12.5,0,0,1,14.87,9.74c2.92,14,8.24,42.42,9.42,68.32a12.46,12.46,0,0,1-11,12.88c-17,2.1-50.37,5.21-78.28,1.71a12.52,12.52,0,0,1-10.13-7.93c-7.33-19-28.08-72.07-36.24-86.16-7.59-13.08-27.73-14.32-37-14.15a12.63,12.63,0,0,1-9.32-3.86c-7.32-7.61-19.05-24.79.85-43.23a12.55,12.55,0,0,0,.66-17.45c-8-9-15.38-23.9-.07-40.7,15.5-17,34.2-13.88,46.2-9a13,13,0,0,0,15.14-3.79,8.29,8.29,0,0,1,7.56-3.25,12.14,12.14,0,0,0,13.19-11.23c.81-11.76,6.35-25.83,26.81-30.85,37.54-9.21,58.33,27.78,59,54.47s-40.61,34.36-64.4,31.11C473.31,679.17,459.1,695.12,452.79,703.76Z"/><path class="cls-64" d="M445,801.28s-8-47.26-27-50.69-38.66,11.19-21.18,38.22C418.57,822.44,445,801.28,445,801.28Z"/><path class="cls-65" d="M413.62,631.26a43.75,43.75,0,0,1,10.9,1c9.05,1.92,21.11,6.57,18,15.28-4.72,13.07-29.19.85-42.21,21.93-11.48,18.57-2.09,38.74-5.6,58.75-1.71,9.74-8,24.2-16.66,29.88-3.89,2.55-34.61,7.41-36.29,2l-8.54-27.71c-7.68-24.92,21.83-66.45,37.05-83.24C382,636.16,397.93,631.9,413.62,631.26Z"/><path class="cls-66" d="M384.5,731.28l-29.38,24.46c-56.34,24-97.28,52.21-126.94,82.76a167.36,167.36,0,0,0-55.86-61.79c56.8-28,99.08-39.6,99.08-39.6C386,691,384.5,731.28,384.5,731.28Z"/><path class="cls-67" d="M228.18,838.5c-92.64,95.39-65.57,46.91-66.3,128.22-.28,30.32-26.59,146.07-26.59,146.07-283.29-122.38-46.87-289.42,37-336.08A167.36,167.36,0,0,1,228.18,838.5Z"/></g></g></svg>