<svg xmlns="http://www.w3.org/2000/svg" viewBox="0 0 28.75 64"><defs><style>.cls-1{fill:#599636;}.cls-2{fill:#6cac48;}.cls-3{fill:#c2bfbf;}</style></defs><g id="Layer_2" data-name="Layer 2"><g id="Layer_1-2" data-name="Layer 1"><path class="cls-1" d="M14.17.17l1.71,3.21A10.12,10.12,0,0,0,17.17,5a44.17,44.17,0,0,1,4,4.53A39.41,39.41,0,0,1,27.42,22.1a30.67,30.67,0,0,1,1.32,8.54,30.12,30.12,0,0,1-8.8,22.24,25.18,25.18,0,0,1-3.14,2.69c-.59,0-.87-.46-1.11-.88a7,7,0,0,1-.87-2.51A12,12,0,0,1,14.54,49v-.49C14.49,48.42,14,.42,14.17.17Z"/><path class="cls-2" d="M14.17.07C14.1-.07,14,0,14,.1A3.18,3.18,0,0,1,13.37,2a9.28,9.28,0,0,1-1.53,1.54,33.41,33.41,0,0,0-7.5,9.55A38.37,38.37,0,0,0,0,28.72a52,52,0,0,0,1.26,11A33.32,33.32,0,0,0,10,53.51a37.62,37.62,0,0,0,3.1,2.65c.31,0,.35-.28.42-.49a8.94,8.94,0,0,0,.31-1.36l.7-5.23Z"/><path class="cls-3" d="M15.88,57.69a4.92,4.92,0,0,1,.87-2.13,2.16,2.16,0,0,1-1-.9,6.24,6.24,0,0,1-.52-1.15,19.84,19.84,0,0,1-.73-4.5v-.9c-.18.14-.21,1.32-.21,1.5a37.11,37.11,0,0,1-.63,4.7,4.3,4.3,0,0,1-.56,1.81.84.84,0,0,0,0,.25A20.91,20.91,0,0,1,14.07,62v.7c0,.83,0,.66.66.94a3.14,3.14,0,0,1,.87.34c.21,0,.24-.17.24-.31l-.1-1.15V59.33a8.86,8.86,0,0,1,.14-1.64Z"/></g></g></svg>