<svg xmlns="http://www.w3.org/2000/svg" viewBox="0 0 310.73 693.92"><defs><style>.cls-1{fill:#fff;}.cls-1,.cls-2,.cls-3,.cls-4{fill-rule:evenodd;}.cls-2{fill:#a6a385;}.cls-3{fill:#499d4a;}.cls-4{fill:#58aa50;}</style></defs><g id="Layer_2" data-name="Layer 2"><g id="Layer_1-2" data-name="Layer 1"><path class="cls-1" d="M171.16,693.92l-18.47-6.32s2.25-94.17-31.55-100.93c-22.52-26.13,3.62-1108.46,84.72-3.6,0,0-27.94,14-32.9,37.85-5.41,23.43-1.8,73-1.8,73Z"/><path class="cls-2" d="M171.16,693.92l-18.47-6.32s2.25-94.17-31.55-100.93c-22.52-26.13,3.62-1108.46,84.72-3.6,0,0-27.94,14-32.9,37.85-5.41,23.43-1.8,73-1.8,73Z"/><path class="cls-1" d="M181.07,602.9S342.84,496.55,305,275.31C268.49,114.45,182.43,61.73,173,41.46,162.6,27,152.69,1.81,152.69,1.81l6.76,447.43c0,.45-14,137,21.63,153.66"/><path class="cls-3" d="M181.07,602.9S342.84,496.55,305,275.31C268.49,114.45,182.43,61.73,173,41.46,162.6,27,152.69,1.81,152.69,1.81l6.76,447.43c0,.45-14,137,21.63,153.66"/><path class="cls-1" d="M143.23,608.75S-8.63,505.11.39,322.63C9,140.14,116.19,50.47,136.91,34.25c13.52-14.42,14-19.83,14.88-34.25,9.46,20.28,7.66,303.25,9,336.59C164.85,465,153.59,584.42,143.23,608.75Z"/><path class="cls-4" d="M143.23,608.75S-8.63,505.11.39,322.63C9,140.14,116.19,50.47,136.91,34.25c13.52-14.42,14-19.83,14.88-34.25,9.46,20.28,7.66,303.25,9,336.59C164.85,465,153.59,584.42,143.23,608.75Z"/></g></g></svg>