<svg xmlns="http://www.w3.org/2000/svg" viewBox="0 0 2258.81 2489.17"><defs><style>.cls-1{fill:#8cc84b;}</style></defs><g id="Layer_2" data-name="Layer 2"><g id="Layer_1-2" data-name="Layer 1"><path class="cls-1" d="M1027.49,26.56c61.72-35.33,142.11-35.49,203.78,0q465.36,263,930.76,525.73c58.34,32.87,97.37,97.79,96.77,165V1772c.44,70-42.44,136.49-104,168.61Q1691,2202.09,1227.36,2463.82c-63,36-145,33.24-206-5.73q-139.07-80.61-278.28-160.9c-18.95-11.3-40.3-20.29-53.68-38.66,11.83-15.94,33-17.92,50.15-24.88,38.7-12.31,74.24-32.06,109.79-51.23,9-6.15,20-3.79,28.58,1.72,79.27,45.45,157.84,92.22,237.38,137.24,17,9.79,34.15-3.21,48.66-11.3q455.16-257.23,910.63-513.9c11.25-5.4,17.46-17.34,16.55-29.65q.32-521.88.1-1043.81c1.29-14-6.8-26.82-19.43-32.54q-462.23-260.31-924.23-520.92a32.1,32.1,0,0,0-36.29,0Q649.11,429.66,187.14,690.33c-12.59,5.73-21,18.36-19.54,32.39q.08,521.87,0,1043.86a29.5,29.5,0,0,0,16.75,29.28q123.33,69.95,246.81,139.38c46.35,25,103.25,39.77,154.32,20.66,45.06-16.16,76.65-62.15,75.79-110,.42-345.89-.22-691.83.32-1037.66-1.13-15.36,13.44-28,28.36-26.6,39.51-.26,79.06-.53,118.57.11,16.49-.37,27.84,16.16,25.8,31.63-.16,348.08.42,696.16-.27,1044.24.11,92.76-38,193.7-123.81,239.09-105.71,54.77-236.37,43.15-340.8-9.36C279,2042.24,192.76,1989,104,1940.64,42.24,1908.7-.43,1842,0,1772V717.31C-.64,648.69,39.94,582.58,100.1,550.2Q563.84,288.48,1027.49,26.56Z"/><path class="cls-1" d="M1297.21,757.14c134.84-8.68,279.19-5.14,400.53,61.29,93.94,50.9,146,157.74,147.68,262.11-2.62,14.07-17.34,21.84-30.78,20.87-39.12-.05-78.25.54-117.37-.26-16.6.64-26.24-14.66-28.33-29.34-11.24-49.93-38.47-99.39-85.47-123.48C1511.31,912.2,1427.65,914,1349,914.77c-57.44,3.05-119.2,8-167.86,41.8-37.36,25.59-48.71,77.24-35.38,118.83,12.58,29.87,47,39.51,75.26,48.39,162.5,42.5,334.7,38.27,494.1,94.2,66,22.8,130.55,67.13,153.14,136.23,29.54,92.6,16.59,203.29-49.3,277.64-53.43,61.18-131.25,94.47-208.86,112.56-103.25,23-210.41,23.61-315.27,13.39-98.6-11.25-201.2-37.15-277.32-104.33-65.09-56.52-96.88-144.57-93.72-229.57.75-14.35,15-24.36,28.79-23.18,39.4-.32,78.8-.42,118.19,0,15.74-1.12,27.41,12.48,28.21,27.31,7.27,47.58,25.15,97.52,66.64,125.73,80.07,51.65,180.54,48.12,272.23,49.56,76-3.37,161.22-4.39,223.21-54.59,32.7-28.63,42.39-76.54,33.55-117.76-9.57-34.79-46-51-77.23-61.61-160.42-50.75-334.54-32.33-493.41-89.72-64.49-22.79-126.86-65.88-151.64-132.14-34.57-93.78-18.73-209.77,54.06-281.61,71-71.45,173.43-99,270.85-108.82Z"/></g></g></svg>