<svg id="Capa_1" enable-background="new 0 0 512 512" height="512" viewBox="0 0 512 512" width="512" xmlns="http://www.w3.org/2000/svg"><g><g><path d="m398.54 419.605c-26.761 43.405-78.073 65.263-127.845 54.175-55.944-12.463-116.775-46.376-169.116-98.717-52.348-52.348-86.26-113.18-98.723-169.126-11.088-49.772 10.769-101.085 54.174-127.846 9.73-5.999 22.307-4.528 30.39 3.555l60.031 60.031c11.261 11.261 9.059 30.083-4.497 38.441l-24.53 15.124c-10.295 6.347-14.487 19.219-9.866 30.395 10.029 24.255 28.152 57.825 60.588 89.032 29.013 27.913 59.253 44.098 81.948 53.46 11.142 4.596 23.973.356 30.298-9.903l15.13-24.54c8.358-13.556 27.18-15.758 38.441-4.497l60.022 60.022c8.083 8.083 9.554 20.66 3.555 30.39z" fill="#b5adb6"/><g fill="#918291"><path d="m398.539 419.605.002-.003c5.999-9.73 4.528-22.307-3.555-30.39l-60.022-60.022c-11.261-11.261-30.084-9.059-38.441 4.497l-3.285 5.328v.008l94.917 94.917c3.767-4.475 7.25-9.251 10.384-14.335z"/><path d="m137.62 183.405.002.001 5.332-3.288c13.556-8.358 15.758-27.18 4.497-38.441l-60.031-60.031c-8.082-8.083-20.659-9.554-30.389-3.555-5.085 3.135-9.862 6.619-14.337 10.387z"/></g></g><path d="m504.611 123.917-84.26-84.26c-9.169-9.169-24.847-2.675-24.847 10.292v21.168c0 4.85-3.951 8.795-8.801 8.73-.803-.011-1.607-.016-2.412-.016-97.121 0-175.853 78.733-175.853 175.853 0 9.538.757 18.902 2.232 28.033 7.636-56.92 56.386-100.817 115.401-100.817 24.367 0 46.982 7.486 65.678 20.276 2.364 1.617 3.754 4.317 3.754 7.181v23.208c0 12.967 15.678 19.461 24.847 10.292l84.26-84.26c9.853-9.854 9.853-25.828.001-35.68z" fill="#7acaa6"/><g><path d="m504.611 123.917-84.26-84.26c-8.271-8.272-21.835-3.794-24.412 6.681l77.579 77.579c9.852 9.852 9.852 25.826 0 35.679l-77.579 77.579c2.577 10.475 16.141 14.952 24.412 6.681l84.26-84.26c9.852-9.853 9.852-25.827 0-35.679z" fill="#57be92"/></g></g></svg>