<svg xmlns="http://www.w3.org/2000/svg" xmlns:xlink="http://www.w3.org/1999/xlink" viewBox="0 0 2500 2437.51"><defs><style>.cls-1{fill:url(#radial-gradient);}.cls-2{fill:#e579ff;}</style><radialGradient id="radial-gradient" cx="383.06" cy="1274.22" r="0.76" gradientTransform="matrix(2291.67, 0, 0, -2218.75, -876994.67, 2827775.23)" gradientUnits="userSpaceOnUse"><stop offset="0" stop-color="#4b2d4f" stop-opacity="0.98"/><stop offset="1" stop-color="#180024"/></radialGradient></defs><g id="Layer_2" data-name="Layer 2"><g id="Layer_1-2" data-name="Layer 1"><path class="cls-1" d="M104.17,104.17H2395.84V2333.34H104.17Z"/><path class="cls-2" d="M104.17,104.17H2395.84V2333.34H104.17ZM0,2437.51H2500V0H0ZM1500,1029.17c0-12.5,0-42.71-5.21-101.05,0-8.33,1-10.41,8.34-13.54,63.54-26,212.5-71.87,381.25-71.87,8.33,0,12.5,2.08,12.5,10.42v151c0,8.33-3.13,10.41-11.46,10.41-65.63-3.12-160.42,5.21-196.88,20.83v656.26c0,8.33-3.12,12.5-12.5,12.5H1512.5c-8.33,0-12.5-3.13-12.5-12.5v-662.5ZM833.34,1124c23.95,2.08,42.7,2.08,84.37,2.08,121.88,0,236.46-42.7,236.46-208.33,0-132.29-81.25-199-220.83-199-41.67,0-81.25,2.08-100,3.13V1124ZM649,570.83c0-7.29,2.08-12.5,10.42-12.5,66.66-3.12,164.58-5.21,267.71-5.21,288.54,0,414.58,158.34,414.58,361.46,0,264.59-191.67,378.13-427.08,378.13-39.59,0-53.13-2.08-81.25-2.08v400c0,8.33-3.13,12.5-12.51,12.5H660.42c-8.34,0-12.51-3.13-12.51-12.5V570.83Z"/></g></g></svg>