<svg xmlns="http://www.w3.org/2000/svg" xmlns:xlink="http://www.w3.org/1999/xlink" viewBox="0 0 2500 2437.51"><defs><style>.cls-1{fill:url(#radial-gradient);}.cls-2{fill:#31c5f0;}</style><radialGradient id="radial-gradient" cx="4571.94" cy="654.71" r="0.76" gradientTransform="matrix(2291.67, 0, 0, -2218.75, -10476524.83, 1453241.64)" gradientUnits="userSpaceOnUse"><stop offset="0" stop-color="#34364e" stop-opacity="0.98"/><stop offset="1" stop-color="#0c0824"/></radialGradient></defs><g id="Layer_2" data-name="Layer 2"><g id="Layer_1-2" data-name="Layer 1"><path class="cls-1" d="M104.17,104.17H2395.84V2333.34H104.17Z"/><path class="cls-2" d="M104.17,104.17H2395.84V2333.34H104.17ZM0,2437.51H2500V0H0ZM1685.42,1000c-82.29,0-110.41,41.67-110.41,76,0,37.5,18.74,63.54,129.16,120.84,163.54,79.16,214.59,155.2,214.59,266.66,0,166.67-127.09,256.25-299,256.25-90.63,0-168.76-18.75-213.55-44.79-7.29-3.12-8.33-8.33-8.33-16.66V1505.21c0-10.41,5.21-13.54,12.5-8.33,65.63,42.71,140.63,61.46,209.37,61.46,82.3,0,116.67-34.38,116.67-81.26,0-37.49-24-70.83-129.17-125-147.92-70.83-209.37-142.7-209.37-262.49,0-134.38,105.21-245.84,287.5-245.84,89.58,0,152.08,13.55,186.46,29.17,8.33,5.21,10.41,13.54,10.41,20.83v142.71c0,8.33-5.2,13.54-15.62,10.41-45.83-29.16-113.54-46.87-181.25-46.87ZM789.58,1124c24,2.08,42.71,2.08,84.38,2.08,121.88,0,236.46-42.7,236.46-208.33,0-132.29-82.29-199-220.83-199-41.67,0-81.25,2.08-100,3.13ZM604.17,570.83c0-7.29,14.59-12.5,22.91-12.5,66.67-3.12,165.63-5.21,268.76-5.21,288.54,0,401,158.34,401,360.42,0,264.58-191.67,378.13-427.09,378.13-39.58,0-53.12-2.09-81.25-2.09v400c0,8.33-3.12,12.49-12.5,12.49H616.67c-8.33,0-12.5-3.12-12.5-12.49V570.83Z"/></g></g></svg>