<svg xmlns="http://www.w3.org/2000/svg" viewBox="0 0 432.07 299.69"><g id="Layer_2" data-name="Layer 2"><g id="illustration"><path d="M149.73,126.32H0v84.12H149.73V126.32Zm-9.15,75H9.15V135.47H140.58v65.82Z"/><path d="M37.59,173.86h4.56a8.72,8.72,0,0,0,3.76-.8,9,9,0,0,0,2.91-2.16,10.32,10.32,0,0,0,2.53-6.71,9.18,9.18,0,0,0-.71-3.52,10.51,10.51,0,0,0-1.94-3.11,10.08,10.08,0,0,0-3-2.2,8.55,8.55,0,0,0-3.78-.84h-12v27.92h7.67v-8.58Zm0-12.66h3.85a2.15,2.15,0,0,1,1.42.63,3.11,3.11,0,0,1,.71,2.36,3.46,3.46,0,0,1-.61,2.34,1.82,1.82,0,0,1-1.32.65h-4v-6Z"/><path d="M74.42,175.53a3.25,3.25,0,0,1-1.75.34,11.51,11.51,0,0,1-3.25-.47,21.64,21.64,0,0,1-2.85-1.06,23.24,23.24,0,0,1-2.87-1.54l-3.3,6.73a19.78,19.78,0,0,0,2.73,1.33,26.32,26.32,0,0,0,3.07,1,27.54,27.54,0,0,0,3.2.66,21.39,21.39,0,0,0,3.15.24,16.63,16.63,0,0,0,3.83-.45,10.12,10.12,0,0,0,3.42-1.48,7.59,7.59,0,0,0,2.44-2.73,8.88,8.88,0,0,0,.92-4.23,8.35,8.35,0,0,0-.59-3.34,6.29,6.29,0,0,0-1.69-2.34,10.81,10.81,0,0,0-2.65-1.67,30.74,30.74,0,0,0-3.48-1.3c-.82-.26-1.54-.48-2.18-.66a15.21,15.21,0,0,1-1.64-.57,3.66,3.66,0,0,1-1-.65,1.26,1.26,0,0,1-.35-.91,1.09,1.09,0,0,1,.61-1.06,3.56,3.56,0,0,1,1.63-.31,8.35,8.35,0,0,1,2.57.41,21.58,21.58,0,0,1,4.82,2.14l3.3-6.33c-.62-.32-1.33-.65-2.12-1s-1.63-.68-2.53-1a23.32,23.32,0,0,0-2.82-.74,14.72,14.72,0,0,0-3-.3,12.85,12.85,0,0,0-4,.61,10.34,10.34,0,0,0-3.32,1.79,8.39,8.39,0,0,0-2.3,2.95,9.43,9.43,0,0,0-.85,4.09,8,8,0,0,0,.42,2.71,5.81,5.81,0,0,0,1.28,2.11,8.79,8.79,0,0,0,2.2,1.65,21.07,21.07,0,0,0,3.18,1.36c.84.28,1.63.53,2.38.74s1.41.42,2,.63a4.35,4.35,0,0,1,1.35.73,1.26,1.26,0,0,1,.5,1A1,1,0,0,1,74.42,175.53Z"/><path d="M110.93,181.43a12.75,12.75,0,0,0,4.44-2.83,12.58,12.58,0,0,0,2.85-4.4,15.75,15.75,0,0,0,1-5.76,16,16,0,0,0-.9-5.41,12.25,12.25,0,0,0-7.08-7.41,15.61,15.61,0,0,0-6.09-1.1H94.41v27.92h10.74A15.9,15.9,0,0,0,110.93,181.43Zm-8.85-5.68V161.2h3.07a6.37,6.37,0,0,1,2.63.53,5.67,5.67,0,0,1,2,1.48,6.59,6.59,0,0,1,1.24,2.28,9.47,9.47,0,0,1,.43,2.95,10,10,0,0,1-.41,2.91,7,7,0,0,1-1.22,2.32,5.68,5.68,0,0,1-2,1.53,6.22,6.22,0,0,1-2.67.55Z"/><path d="M416.62,108.13V45.53L351.66,0H178.72V108.13H163.27v120.5h15.45v71.06h237.9V228.63h15.45V108.13ZM354.83,13.55l42.3,29.7h-42.3ZM188,9.27H345.56V52.52h61.79v55.61H188ZM407.35,290.42H188V228.63H407.35v61.79Zm15.45-71.06H172.54v-102H422.8v102Z"/><rect x="214.25" y="253.34" width="166.84" height="9.27"/><rect x="402.71" y="126.67" width="12.36" height="9.27"/><rect x="402.71" y="200.82" width="12.36" height="9.27"/><rect x="180.27" y="200.82" width="12.36" height="9.27"/><rect x="180.27" y="126.67" width="12.36" height="9.27"/><polygon points="238.93 39.02 232.83 32.04 204.12 57.16 232.83 82.27 238.93 75.3 218.2 57.16 238.93 39.02"/><rect x="225.7" y="54.07" width="66.7" height="9.27" transform="translate(141.94 297.11) rotate(-76.61)"/><polygon points="288.36 32.04 282.26 39.02 302.99 57.16 282.26 75.3 288.36 82.27 317.06 57.16 288.36 32.04"/><polygon points="238.97 134.4 238.97 162.2 215.8 162.2 215.8 134.4 206.53 134.4 206.53 199.28 215.8 199.28 215.8 171.47 238.97 171.47 238.97 199.28 248.24 199.28 248.24 134.4 238.97 134.4"/><polygon points="254.42 135.17 254.42 144.44 268.7 144.44 268.7 199.28 277.97 199.28 277.97 144.44 292.26 144.44 292.26 135.17 254.42 135.17"/><path d="M343.63,132.46c-3,0-4.9,2.24-8,7.25-1.73,2.77-3.93,6.61-6.52,11.4-1.55,2.86-3.07,5.73-4.38,8.25-1.31-2.52-2.82-5.39-4.37-8.25-2.6-4.79-4.79-8.63-6.52-11.4-3.14-5-5-7.25-8-7.25a7.19,7.19,0,0,0-7.34,7.34v59.48h9.27V147.54c3.62,6.2,8.62,15.62,12.85,24.07l4.14,8.29,4.15-8.29c4.22-8.45,9.23-17.87,12.84-24.07v51.74H351V139.8A7.18,7.18,0,0,0,343.63,132.46Z"/><polygon points="367.18 189.24 367.18 134.4 357.92 134.4 357.92 198.5 392.29 198.5 392.29 189.24 367.18 189.24"/></g></g></svg>