<?xml version="1.0" encoding="iso-8859-1"?>
<!-- Generator: Adobe Illustrator 19.0.0, SVG Export Plug-In . SVG Version: 6.00 Build 0)  -->
<svg version="1.1" id="Layer_1" xmlns="http://www.w3.org/2000/svg" xmlns:xlink="http://www.w3.org/1999/xlink" x="0px" y="0px"
	 viewBox="0 0 511.999 511.999" style="enable-background:new 0 0 511.999 511.999;" xml:space="preserve">
<g>
	<g>
		<path d="M359.409,120.63c-10.387,0-20.155,4.045-27.5,11.391c-3.255,3.254-3.255,8.529-0.001,11.784
			c3.254,3.253,8.53,3.255,11.783,0.001c4.199-4.198,9.782-6.511,15.718-6.511c12.256,0,22.228,9.971,22.228,22.228v92.642
			c0,12.256-9.972,22.227-22.228,22.227c-12.256,0-22.228-9.971-22.228-22.227v-87.087c0-4.602-3.729-8.332-8.332-8.332
			c-4.603,0-8.332,3.731-8.332,8.332v87.087c0,21.445,17.446,38.891,38.892,38.891c21.446,0,38.892-17.446,38.892-38.891v-92.642
			C398.3,138.076,380.854,120.63,359.409,120.63z"/>
	</g>
</g>
<g>
	<g>
		<path d="M283.083,274.391h-46.968v-60.216h29.415c4.603,0,8.332-3.731,8.332-8.332c0-4.602-3.729-8.332-8.332-8.332h-29.415
			v-60.216h46.968v-0.001c4.603,0,8.332-3.731,8.332-8.332c0-4.601-3.729-8.332-8.332-8.332h-55.3c-4.602,0-8.332,3.731-8.332,8.332
			v153.761c0,4.602,3.731,8.332,8.332,8.332h55.3c4.603,0,8.332-3.731,8.332-8.332S287.686,274.391,283.083,274.391z"/>
	</g>
</g>
<g>
	<g>
		<path d="M149.684,197.51c-10.652,0-19.317-8.667-19.317-19.317v-21.58c0-10.653,8.665-19.318,19.317-19.318
			c10.652,0,19.318,8.667,19.318,19.318c0,4.602,3.731,8.332,8.332,8.332c4.601,0,8.332-3.731,8.332-8.332
			c0-19.84-16.141-35.983-35.983-35.983c-19.84,0-35.981,16.142-35.981,35.983v21.58c0,19.84,16.141,35.981,35.981,35.981
			c10.652,0,19.318,8.667,19.318,19.318v21.58c0,10.652-8.665,19.317-19.318,19.317c-10.652,0-19.317-8.667-19.317-19.317
			c0-4.602-3.731-8.332-8.332-8.332c-4.601,0-8.332,3.731-8.332,8.332c0,19.84,16.141,35.981,35.981,35.981
			c19.84,0,35.983-16.141,35.983-35.981v-21.58C185.666,213.652,169.525,197.51,149.684,197.51z"/>
	</g>
</g>
<g>
	<g>
		<path d="M471.246,24.766H40.754C18.283,24.766,0,43.049,0,65.52v59.227c0,4.602,3.731,8.332,8.332,8.332
			c4.601,0,8.332-3.731,8.332-8.332V65.52c0-13.284,10.807-24.09,24.09-24.09h430.492c13.284,0,24.09,10.807,24.09,24.09v284.411
			h-52.21c-4.602,0-8.332,3.731-8.332,8.332s3.731,8.332,8.332,8.332h52.21v15.273c0,13.284-10.807,24.09-24.09,24.09h-155.41
			H196.164H40.754c-13.284,0-24.09-10.807-24.09-24.09v-15.273h398.688c4.602,0,8.332-3.731,8.332-8.332s-3.731-8.332-8.332-8.332
			H16.664V152.522c0-4.602-3.731-8.332-8.332-8.332c-4.601,0-8.332,3.73-8.332,8.332V381.87c0,22.472,18.283,40.754,40.754,40.754
			H183.54l-20.494,47.945h-40.034c-4.602,0-8.332,3.731-8.332,8.332s3.731,8.332,8.332,8.332h265.975
			c4.602,0,8.332-3.731,8.332-8.332s-3.731-8.332-8.332-8.332h-40.034l-20.494-47.945h142.786c22.472,0,40.754-18.282,40.754-40.754
			V65.52C512,43.049,493.717,24.766,471.246,24.766z M330.83,470.568H181.17l14.238-33.31h121.185L330.83,470.568z"/>
	</g>
</g>
<g>
	<g>
		<path d="M262.924,379.679c-1.914-2.906-5.583-4.299-8.952-3.457c-3.517,0.879-6.116,4.048-6.291,7.67
			c-0.364,7.534,9.106,11.629,14.33,6.172C264.674,387.282,265.089,382.887,262.924,379.679z"/>
	</g>
</g>
<g>
</g>
<g>
</g>
<g>
</g>
<g>
</g>
<g>
</g>
<g>
</g>
<g>
</g>
<g>
</g>
<g>
</g>
<g>
</g>
<g>
</g>
<g>
</g>
<g>
</g>
<g>
</g>
<g>
</g>
</svg>
