<svg xmlns="http://www.w3.org/2000/svg" viewBox="0 0 2500 2437.5"><defs><style>.cls-1{fill:#2e001e;}.cls-2{fill:#ff2bc2;}</style></defs><g id="Layer_2" data-name="Layer 2"><g id="ps_cc_app_RGB.svg"><path class="cls-1" d="M104.17,104.17H2395.83V2333.33H104.17Z"/><path class="cls-2" d="M0,0V2437.5H2500V0ZM104.17,104.17H2395.83V2333.33H104.17Z"/><path class="cls-2" d="M1815.63,1024c-15.63-7.29-35.42-10.42-60.42-10.42-131.25,0-218.75,101-218.75,268.75C1536.46,1474,1626,1551,1742.71,1551c25,0,52.08-3.12,71.87-11.46V1024ZM1349,1290.63c0-242.71,156.25-432.3,412.5-432.3,21.87,0,33.33,0,54.17,2.09V589.58A10.43,10.43,0,0,1,1826,579.17h167.71c8.33,0,10.42,3.12,10.42,8.33v952.08c0,28.13,0,63.55,5.21,102.09,0,7.29,0,8.33-6.25,11.46a620.59,620.59,0,0,1-266.67,60.41c-226,0-387.5-139.58-387.5-422.91ZM993.75,1121.88l291.67,565.62c5.21,8.33,2.08,16.67-6.25,16.67H1097.92c-11.46,0-16.67-3.13-21.88-13.54q-100-206.25-204.16-428.13h-2.09c-62.5,139.58-131.25,291.67-197.91,429.17-5.21,8.33-10.42,11.46-18.75,11.46H480.21c-10.42,0-11.46-8.34-6.25-14.59l285.42-549-276-545.83c-6.25-8.33,0-15.62,7.3-15.62H669.79c10.42,0,15.63,2.08,18.75,11.45,65.63,138.55,132.29,275,194.79,414.59h2.09c60.41-137.5,127.08-276,190.62-412.5,5.21-8.34,8.34-13.54,18.75-13.54H1262.5c8.33,0,11.46,6.25,6.25,15.62l-275,528.13Z"/></g></g></svg>