<svg xmlns="http://www.w3.org/2000/svg" viewBox="0 0 447.49 282.75"><defs><style>.cls-1{fill:#f5f5f5;}.cls-2{fill:#263238;}.cls-10,.cls-17,.cls-19,.cls-21,.cls-27,.cls-28,.cls-3,.cls-30,.cls-4,.cls-6,.cls-7,.cls-8{fill:#fff;}.cls-11,.cls-23,.cls-27,.cls-3{opacity:0.2;}.cls-20,.cls-30,.cls-4{opacity:0.4;}.cls-15,.cls-5{fill:#407bff;}.cls-6,.cls-8{opacity:0.6;}.cls-11,.cls-20,.cls-23,.cls-24,.cls-27,.cls-28,.cls-30,.cls-6,.cls-9{isolation:isolate;}.cls-22,.cls-9{opacity:0.1;}.cls-10{opacity:0.7;}.cls-12,.cls-13,.cls-14,.cls-16,.cls-18,.cls-26,.cls-32{fill:none;}.cls-12,.cls-13,.cls-14,.cls-15,.cls-16,.cls-32{stroke:#fff;}.cls-12,.cls-13,.cls-14,.cls-15,.cls-18,.cls-19{stroke-miterlimit:10;}.cls-13{stroke-dasharray:5.28 5.28;}.cls-14{stroke-dasharray:4.53 4.53;}.cls-16,.cls-26,.cls-32{stroke-linecap:round;stroke-linejoin:round;}.cls-16{stroke-width:1.5px;}.cls-17{opacity:0.5;}.cls-18,.cls-19{stroke:#407bff;}.cls-21{opacity:0.9;}.cls-24,.cls-28{opacity:0.3;}.cls-25{fill:#ebb376;}.cls-26{stroke:#263238;stroke-width:0.5px;}.cls-29{fill:#b97964;}.cls-31{fill:#a24e3f;}.cls-32{stroke-width:2px;}</style></defs><g id="Layer_2" data-name="Layer 2"><g id="Character_1" data-name="Character 1"><path class="cls-1" d="M378.13,68.49v7.18l3.7.35a19.13,19.13,0,0,0,2.76,6.64l-2.38,2.87,5.08,5.08,2.87-2.38A19.16,19.16,0,0,0,396.79,91l.35,3.7h7.19l.35-3.7a19.16,19.16,0,0,0,6.63-2.76l2.87,2.38,5.08-5.08-2.38-2.87A19.13,19.13,0,0,0,419.64,76l3.7-.35V68.49l-3.7-.35a19,19,0,0,0-2.76-6.63l2.38-2.87-5.08-5.08-2.87,2.37a19.35,19.35,0,0,0-6.63-2.76l-.35-3.7h-7.19l-.35,3.7a19.35,19.35,0,0,0-6.63,2.76l-2.87-2.37-5.08,5.08,2.38,2.87a19,19,0,0,0-2.76,6.63Zm22.61-6.13A9.73,9.73,0,1,1,391,72.08,9.72,9.72,0,0,1,400.74,62.36Z"/><path class="cls-1" d="M382.77,120.91a14.88,14.88,0,0,0,5.2-2.17l2.25,1.87,4-4-1.86-2.25a15.13,15.13,0,0,0,2.16-5.2l2.9-.28v-5.62l-2.9-.28a15.13,15.13,0,0,0-2.16-5.2l1.86-2.25-4-4L388,93.43a15.05,15.05,0,0,0-5.2-2.16l-.27-2.9h-5.63l-.28,2.9a15.13,15.13,0,0,0-5.2,2.16l-2.25-1.86-4,4L367,97.8a15,15,0,0,0-2.17,5.2l-2.89.28v5.62l2.89.28a15,15,0,0,0,2.17,5.2l-1.87,2.25,4,4,2.25-1.87a15,15,0,0,0,5.2,2.17l.28,2.9h5.63Zm-10.71-14.82a7.62,7.62,0,1,1,7.62,7.62A7.62,7.62,0,0,1,372.06,106.09Z"/><path class="cls-1" d="M370.21,90.44,372.1,92l3.34-3.34-1.56-1.89a12.61,12.61,0,0,0,1.81-4.37l2.44-.23V77.45l-2.44-.23a12.61,12.61,0,0,0-1.81-4.37L375.44,71l-3.34-3.34-1.89,1.56a12.62,12.62,0,0,0-4.37-1.82l-.23-2.43h-4.73l-.23,2.43a12.66,12.66,0,0,0-4.36,1.82l-1.89-1.56L351.05,71l1.57,1.89a12.62,12.62,0,0,0-1.82,4.37l-2.43.23v4.72l2.43.23a12.62,12.62,0,0,0,1.82,4.37l-1.57,1.89L354.4,92l1.89-1.56a12.45,12.45,0,0,0,4.36,1.81l.23,2.44h4.73l.23-2.44A12.42,12.42,0,0,0,370.21,90.44ZM356.85,79.81a6.4,6.4,0,1,1,6.4,6.4A6.39,6.39,0,0,1,356.85,79.81Z"/><polygon class="cls-2" points="314.06 275.84 321.4 275.84 331.4 220.6 324.06 220.6 314.06 275.84"/><polygon class="cls-3" points="314.06 275.84 321.4 275.84 331.4 220.6 324.06 220.6 314.06 275.84"/><polygon class="cls-3" points="314.06 275.84 319.4 275.84 329.4 220.6 324.06 220.6 314.06 275.84"/><path class="cls-2" d="M293.36,237h29.39a1.62,1.62,0,0,0,1.63-1.62h0a1.62,1.62,0,0,0-1.63-1.62H293.36a1.62,1.62,0,0,0-1.62,1.62h0A1.62,1.62,0,0,0,293.36,237Z"/><path class="cls-2" d="M290.1,255.53h29.39a1.62,1.62,0,0,0,1.62-1.63h0a1.62,1.62,0,0,0-1.62-1.62H290.1a1.62,1.62,0,0,0-1.62,1.62h0A1.62,1.62,0,0,0,290.1,255.53Z"/><polygon class="cls-2" points="284.06 275.84 291.4 275.84 301.4 220.6 294.06 220.6 284.06 275.84"/><polygon class="cls-3" points="284.06 275.84 291.4 275.84 301.4 220.6 294.06 220.6 284.06 275.84"/><polygon class="cls-3" points="284.06 275.84 289.4 275.84 299.4 220.6 294.06 220.6 284.06 275.84"/><polygon class="cls-2" points="352.4 275.84 345.06 275.84 335.06 220.6 342.4 220.6 352.4 275.84"/><polygon class="cls-4" points="352.4 275.84 345.06 275.84 335.06 220.6 342.4 220.6 352.4 275.84"/><polygon class="cls-3" points="350.4 275.84 345.06 275.84 335.06 220.6 340.4 220.6 350.4 275.84"/><path class="cls-2" d="M339.49,237H310.1a1.61,1.61,0,0,1-1.62-1.62h0a1.61,1.61,0,0,1,1.62-1.62h29.39a1.61,1.61,0,0,1,1.62,1.62h0A1.61,1.61,0,0,1,339.49,237Z"/><path class="cls-2" d="M342.75,255.53H313.36a1.63,1.63,0,0,1-1.62-1.63h0a1.63,1.63,0,0,1,1.62-1.62h29.39a1.63,1.63,0,0,1,1.63,1.62h0A1.63,1.63,0,0,1,342.75,255.53Z"/><path class="cls-3" d="M339.49,237H310.1a1.61,1.61,0,0,1-1.62-1.62h0a1.61,1.61,0,0,1,1.62-1.62h29.39a1.61,1.61,0,0,1,1.62,1.62h0A1.61,1.61,0,0,1,339.49,237Z"/><path class="cls-3" d="M342.75,255.53H313.36a1.63,1.63,0,0,1-1.62-1.63h0a1.63,1.63,0,0,1,1.62-1.62h29.39a1.63,1.63,0,0,1,1.63,1.62h0A1.63,1.63,0,0,1,342.75,255.53Z"/><polygon class="cls-2" points="322.4 275.84 315.06 275.84 305.06 220.6 312.4 220.6 322.4 275.84"/><polygon class="cls-4" points="322.4 275.84 315.06 275.84 305.06 220.6 312.4 220.6 322.4 275.84"/><polygon class="cls-3" points="320.4 275.84 315.06 275.84 305.06 220.6 310.4 220.6 320.4 275.84"/><rect class="cls-2" x="290.98" y="217.96" width="55.47" height="5.27" rx="1.19"/><rect class="cls-3" x="290.98" y="217.96" width="22.56" height="5.27" rx="1.19"/><rect class="cls-5" x="106.88" y="231.45" width="67.15" height="43.67"/><rect class="cls-6" x="106.88" y="231.45" width="67.15" height="43.67"/><rect class="cls-5" x="109.33" y="239.64" width="62.24" height="33.3"/><rect class="cls-7" x="114.4" y="244.61" width="46.04" height="1.43"/><rect class="cls-7" x="114.4" y="249" width="22.09" height="1.43"/><rect class="cls-7" x="114.4" y="253.39" width="27.82" height="1.43"/><rect class="cls-7" x="114.4" y="257.77" width="9.8" height="1.43"/><rect class="cls-7" x="114.4" y="262.16" width="6.35" height="1.43"/><polygon class="cls-5" points="257.01 275.84 202.34 275.84 211.6 203.17 247.75 203.17 257.01 275.84"/><polygon class="cls-8" points="257 275.84 202.34 275.84 208.68 226.12 211.6 203.17 247.75 203.17 252.06 237.03 257 275.84"/><polygon class="cls-9" points="252.06 237.03 208.68 226.12 211.6 203.17 247.75 203.17 252.06 237.03"/><path class="cls-5" d="M358.54,24H100.81a6.59,6.59,0,0,0-6.6,6.6V205.06a6.59,6.59,0,0,0,6.6,6.59H358.54a6.6,6.6,0,0,0,6.6-6.59V30.58A6.6,6.6,0,0,0,358.54,24Z"/><path class="cls-10" d="M358.54,24H100.81a6.59,6.59,0,0,0-6.6,6.6V205.06a6.59,6.59,0,0,0,6.6,6.59H358.54a6.6,6.6,0,0,0,6.6-6.59V30.58A6.6,6.6,0,0,0,358.54,24Z"/><rect class="cls-5" x="102.89" y="30.44" width="253.57" height="168.25"/><rect class="cls-5" x="182.73" y="270.38" width="93.89" height="5.37" rx="1.04"/><rect class="cls-10" x="182.73" y="270.38" width="93.89" height="5.37" rx="1.04"/><rect class="cls-11" x="102.89" y="30.6" width="253.57" height="25.08"/><rect class="cls-4" x="102.89" y="55.98" width="108.66" height="142.71"/><polyline class="cls-12" points="317.44 92.38 317.44 94.88 314.94 94.88"/><line class="cls-13" x1="309.65" y1="94.88" x2="227.75" y2="94.88"/><polyline class="cls-12" points="225.11 94.88 222.61 94.88 222.61 92.38"/><line class="cls-14" x1="222.61" y1="87.85" x2="222.61" y2="44.82"/><polyline class="cls-12" points="222.61 42.56 222.61 40.06 225.11 40.06"/><line class="cls-13" x1="230.4" y1="40.06" x2="312.29" y2="40.06"/><polyline class="cls-12" points="314.94 40.06 317.44 40.06 317.44 42.56"/><line class="cls-14" x1="317.44" y1="47.09" x2="317.44" y2="90.12"/><rect class="cls-15" x="315.85" y="38.47" width="3.17" height="3.17"/><rect class="cls-15" x="315.85" y="93.3" width="3.17" height="3.17"/><rect class="cls-15" x="221.03" y="38.47" width="3.17" height="3.17"/><rect class="cls-15" x="221.03" y="93.3" width="3.17" height="3.17"/><rect class="cls-15" x="268.44" y="38.47" width="3.17" height="3.17"/><rect class="cls-15" x="268.44" y="93.3" width="3.17" height="3.17"/><rect class="cls-15" x="315.85" y="65.88" width="3.17" height="3.17"/><rect class="cls-15" x="221.03" y="65.88" width="3.17" height="3.17"/><rect class="cls-10" x="283.73" y="58.47" width="26.99" height="9.99" rx="1.89"/><rect class="cls-10" x="243.73" y="58.47" width="26.99" height="9.99" rx="1.89"/><rect class="cls-10" x="192.23" y="180.06" width="26.99" height="9.99" rx="1.89"/><line class="cls-16" x1="339.73" y1="39.52" x2="348.17" y2="39.52"/><line class="cls-16" x1="339.73" y1="43.52" x2="348.17" y2="43.52"/><line class="cls-16" x1="339.73" y1="47.52" x2="348.17" y2="47.52"/><rect class="cls-17" x="120.08" y="78.1" width="85.05" height="85.05"/><line class="cls-18" x1="155.68" y1="85.05" x2="155.68" y2="158.42"/><path class="cls-18" d="M192.36,158.42h0a36.69,36.69,0,0,1-36.68-36.69h0a36.69,36.69,0,0,1,36.68-36.68h0"/><rect class="cls-19" x="190.78" y="83.47" width="3.17" height="3.17"/><rect class="cls-19" x="190.78" y="156.83" width="3.17" height="3.17"/><rect class="cls-19" x="154.1" y="120.15" width="3.17" height="3.17"/><path class="cls-19" d="M156.51,85.05a.83.83,0,1,1-.83-.82A.83.83,0,0,1,156.51,85.05Z"/><path class="cls-19" d="M156.51,158.42a.83.83,0,1,1-.83-.83A.83.83,0,0,1,156.51,158.42Z"/><path class="cls-10" d="M296.6,181.27H270.86a7.44,7.44,0,0,1-7.44-7.44h0a7.44,7.44,0,0,1,7.44-7.44H296.6a7.44,7.44,0,0,1,7.44,7.44h0A7.44,7.44,0,0,1,296.6,181.27Z"/><path class="cls-10" d="M319.22,117.82H239.68a1.63,1.63,0,0,1-1.62-1.63h0a1.62,1.62,0,0,1,1.62-1.62h79.54a1.62,1.62,0,0,1,1.63,1.62h0A1.63,1.63,0,0,1,319.22,117.82Z"/><path class="cls-10" d="M319.22,129.69H239.68a1.62,1.62,0,0,1-1.62-1.62h0a1.63,1.63,0,0,1,1.62-1.63h79.54a1.63,1.63,0,0,1,1.63,1.63h0A1.62,1.62,0,0,1,319.22,129.69Z"/><path class="cls-10" d="M319.22,141.57H269.68a1.63,1.63,0,0,1-1.62-1.62h0a1.63,1.63,0,0,1,1.62-1.63h49.54a1.63,1.63,0,0,1,1.63,1.63h0A1.63,1.63,0,0,1,319.22,141.57Z"/><rect class="cls-20" x="110.9" y="37.55" width="5.62" height="5.62"/><rect class="cls-20" x="121.82" y="37.55" width="5.62" height="5.62" rx="1.44"/><rect class="cls-20" x="132.75" y="37.55" width="5.62" height="5.62" rx="2.57"/><path class="cls-21" d="M128.13,176.1v-2.19l-1.13-.1a5.78,5.78,0,0,0-.84-2l.72-.87-1.54-1.55-.88.72a6.22,6.22,0,0,0-2-.84l-.11-1.12h-2.19l-.1,1.12a6.18,6.18,0,0,0-2,.84l-.87-.72-1.55,1.55.72.87a6.18,6.18,0,0,0-.84,2l-1.12.1v2.19l1.12.11a6.22,6.22,0,0,0,.84,2l-.72.88,1.55,1.54.87-.72a5.78,5.78,0,0,0,2,.84l.1,1.13h2.19l.11-1.13a5.81,5.81,0,0,0,2-.84l.88.72,1.54-1.54-.72-.88a5.81,5.81,0,0,0,.84-2ZM121.24,178a3,3,0,1,1,3-3A3,3,0,0,1,121.24,178Z"/><path class="cls-8" d="M137,182.28v-1.71l-.88-.09a4.61,4.61,0,0,0-.66-1.58l.57-.69L134.82,177l-.69.57a4.66,4.66,0,0,0-1.59-.66l-.08-.89h-1.71l-.09.89a4.61,4.61,0,0,0-1.58.66l-.69-.57-1.21,1.21.57.69a4.42,4.42,0,0,0-.66,1.58l-.89.09v1.71l.89.09a4.42,4.42,0,0,0,.66,1.58l-.57.69,1.21,1.21.69-.57a4.61,4.61,0,0,0,1.58.66l.09.88h1.71l.08-.88a4.66,4.66,0,0,0,1.59-.66l.69.57,1.21-1.21-.57-.69a4.61,4.61,0,0,0,.66-1.58Zm-5.4,1.47a2.33,2.33,0,1,1,2.33-2.33A2.32,2.32,0,0,1,131.6,183.75Z"/><path class="cls-4" d="M128.13,187.15v-1.44l-.74-.07a3.92,3.92,0,0,0-.56-1.33l.48-.57-1-1-.58.47a3.74,3.74,0,0,0-1.33-.55l-.07-.74h-1.44l-.07.74a3.9,3.9,0,0,0-1.33.55l-.57-.47-1,1,.47.57a3.9,3.9,0,0,0-.55,1.33l-.74.07v1.44l.74.07a3.87,3.87,0,0,0,.55,1.34l-.47.57,1,1,.57-.48a3.73,3.73,0,0,0,1.33.56l.07.74h1.44l.07-.74a3.59,3.59,0,0,0,1.33-.56l.58.48,1-1-.48-.57a3.89,3.89,0,0,0,.56-1.34Zm-4.54,1.23a1.95,1.95,0,1,1,2-1.95A2,2,0,0,1,123.59,188.38Z"/><polygon class="cls-5" points="316.85 39.49 321.09 50.83 328.19 43.73 316.85 39.49"/><rect class="cls-5" x="323.52" y="44.8" width="2.24" height="4.97" transform="translate(61.65 243.4) rotate(-45)"/><polygon class="cls-4" points="328.19 43.73 316.85 39.49 321.09 50.83 323.85 48.07 325.61 49.83 327.19 48.25 325.43 46.49 328.19 43.73"/><path class="cls-2" d="M143.14,80l10.66,4-5.59-5.59a1.09,1.09,0,0,1-1.31-.17,1.1,1.1,0,0,1,1.56-1.56,1.09,1.09,0,0,1,.17,1.31l5.59,5.59-4-10.67-3.53.78-.14-1.27-.67-.67L142,75.68l.67.67,1.28.13Z"/><path class="cls-3" d="M143.14,80l10.66,4-5.59-5.59a1.09,1.09,0,0,1-1.31-.17,1.1,1.1,0,0,1,1.56-1.56,1.09,1.09,0,0,1,.17,1.31l5.59,5.59-4-10.67-3.53.78-.14-1.27-.67-.67L142,75.68l.67.67,1.28.13Z"/><g class="cls-22"><polygon class="cls-7" points="139.97 30.44 102.39 170.86 102.39 30.44 139.97 30.44"/><polygon class="cls-7" points="182.38 30.44 137.35 198.69 106.33 198.69 151.35 30.44 182.38 30.44"/><polygon class="cls-7" points="227.48 30.44 182.45 198.69 168.42 198.69 213.45 30.44 227.48 30.44"/><polygon class="cls-7" points="269.01 30.44 223.98 198.69 218.96 198.69 263.99 30.44 269.01 30.44"/></g><path class="cls-2" d="M419.51,71.35c3.54,4.09,21.6,38.88,18.11,47s-32.43-1.24-32.43-1.24l1.73-11.46s11.25.4,12.32-.67S404,87.65,404,87.65Z"/><g class="cls-23"><path class="cls-7" d="M437.62,118.36a4.38,4.38,0,0,1-2.11,2.14l0,0-.58.26-.08,0a4.44,4.44,0,0,1-.55.19,12.13,12.13,0,0,1-2.5.52l-.73.07c-.36,0-.72,0-1.09.06l-.95,0c-9.7,0-23.81-4.55-23.81-4.55l1.73-11.47s11.24.4,12.32-.67c.26-.26-.51-1.42-1.82-3l0,0c-3.18-3.91-9.55-10.42-12.18-13.08L404,87.65l15.47-16.3C423.05,75.44,441.11,110.23,437.62,118.36Z"/></g><path class="cls-11" d="M435.51,120.5l0,0-.58.26-.08,0a4.44,4.44,0,0,1-.55.19,12.13,12.13,0,0,1-2.5.52l-.73.07c-.36,0-.72,0-1.09.06l-.95,0c-9.7,0-23.81-4.55-23.81-4.55l1.73-11.47s12.66,1.07,13.74,0a.13.13,0,0,0,0-.05c.2-.42-1.2-1.84-3.27-3.65l0,0c-3.18-3.91-9.55-10.42-12.18-13.08L412.54,81l5.57-.6S430.41,100.34,435.51,120.5Z"/><path class="cls-2" d="M383,70.21c-2,1.45-3,3.51-2.2,4.6l52.84,72.85c.79,1.09,3,.79,5.06-.66s3-3.52,2.2-4.6L388.08,69.54C387.29,68.45,385,68.75,383,70.21Z"/><path class="cls-10" d="M388.07,69.54l52.84,72.86c.79,1.08-.2,3.14-2.2,4.59s-4.26,1.75-5,.67L380.82,74.8a2.28,2.28,0,0,1,.19-2.42,5.63,5.63,0,0,1,1-1.31,7.75,7.75,0,0,1,1-.86C385,68.76,387.29,68.46,388.07,69.54Z"/><path class="cls-24" d="M440.91,142.4c.79,1.08-.2,3.14-2.2,4.59s-4.26,1.75-5,.67c-.43-.6.66-1.51,1.29-2.82L381,72.38a5.63,5.63,0,0,1,1-1.31l52.84,72.86a8.55,8.55,0,0,1,1-.87C437.86,141.61,440.13,141.31,440.91,142.4Z"/><path class="cls-5" d="M376.47,68.18c-1.69,1.81-2.27,4-1.29,4.94l65.7,61.51c1,.92,3.15.2,4.84-1.61s2.27-4,1.29-4.94l-65.7-61.51C380.33,65.66,378.17,66.38,376.47,68.18Z"/><path class="cls-10" d="M381.31,66.57,447,128.08c1,.92.4,3.13-1.29,4.94s-3.85,2.52-4.83,1.6l-65.7-61.51a2.25,2.25,0,0,1-.27-2.41,6,6,0,0,1,.73-1.48,8.39,8.39,0,0,1,.83-1C378.16,66.38,380.33,65.66,381.31,66.57Z"/><path class="cls-24" d="M447,128.08c1,.92.4,3.13-1.29,4.94s-3.85,2.52-4.83,1.6c-.54-.5.36-1.6.73-3L374.92,70.7a6,6,0,0,1,.73-1.48l65.71,61.52a8.56,8.56,0,0,1,.82-1.05C443.86,127.89,446,127.17,447,128.08Z"/><path class="cls-25" d="M392.26,264.49l-5,.08c-5.09-23.91-8.69-53.5-10.93-75.82-.35-3.5-.67-6.81-.95-9.9-.13-1.47-.26-2.88-.38-4.24-.6-6.71-1-12-1.26-15.32-.18-2.4-.27-3.72-.27-3.72h18.1l-.17,4.61-.56,15.22-.06,1.74-.38,10.05-.63,17.11C396,228.39,392.26,264.49,392.26,264.49Z"/><path class="cls-25" d="M432.86,263.21l-4.93.93c-9.87-24.67-19.14-56.26-25.17-78.33-.93-3.42-1.79-6.62-2.56-9.52,0-.15-.07-.29-.11-.43-1.52-5.76-2.69-10.35-3.42-13.26l-.87-3.53L413.64,156l1,7.5,1.49,11,.29,2.16,1,7.51,2.71,20.14C430.37,227,432.86,263.21,432.86,263.21Z"/><path class="cls-11" d="M416.14,174.51l-15.94,1.78c0-.15-.07-.29-.11-.43-1.52-5.76-2.69-10.35-3.42-13.26l18,.89Z"/><path class="cls-11" d="M391.39,160.18l-.56,15.22-.06,1.74-15.4,1.71c-.13-1.47-.26-2.88-.38-4.24-.6-6.71-1-12-1.26-15.32Z"/><path class="cls-2" d="M377.47,281.11a10,10,0,0,1,3.14-1.71h0s3.41-3.38,5.05-13.56l4.46-1.17a3.8,3.8,0,0,1,4.06,1.59,2.16,2.16,0,0,1,.29.59,24.5,24.5,0,0,1,.47,3.3,92.3,92.3,0,0,1,.07,11.19h-.81l-.32-7c-.12-2.39-1.94.41-2.46,3s-1.64,5.29-6.86,5.42C378.46,282.84,375.93,282.6,377.47,281.11Z"/><path class="cls-2" d="M394.34,266.34c.29-2.38.38-6.53.38-6.53l-9.91,1.1s1.2,4.72.21,8.25C390,267.85,394.34,266.34,394.34,266.34Z"/><path class="cls-2" d="M417.83,281.11A9.9,9.9,0,0,1,421,279.4h0s3.41-3.38,5-13.56l4.46-1.17a3.81,3.81,0,0,1,4.06,1.59,2.16,2.16,0,0,1,.29.59,24.5,24.5,0,0,1,.47,3.3,92.3,92.3,0,0,1,.07,11.19h-.81l-.32-7c-.12-2.39-1.94.41-2.47,3s-1.63,5.29-6.85,5.42C418.82,282.84,416.29,282.6,417.83,281.11Z"/><path class="cls-2" d="M434.7,266.34c.29-2.38.38-6.53.38-6.53l-9.91,1.1s1.2,4.72.21,8.25C430.37,267.85,434.7,266.34,434.7,266.34Z"/><path class="cls-5" d="M417.86,169.6,399,172l-.73.09-3.88-14.22-1,15.24-20.22-1.06c-9-52.87,6.39-65.36,6.39-65.36L407,112.22c12.43,21.11,9.47,45.66,9.47,45.66Z"/><path class="cls-26" d="M391.89,40.83c0,2.07-.92,3.76-2.06,3.76s-2.06-1.69-2.06-3.76.92-3.76,2.06-3.76S391.89,38.75,391.89,40.83Z"/><path class="cls-25" d="M405.43,53.42a1.08,1.08,0,0,1-.24.18,11,11,0,0,1-3.83,1.87c-4.05.94-6.82.38-8.62-1.45h0c-2.53-2.75-3.16-7.62-2.81-13.5a21.93,21.93,0,0,1,1.29-6.86.41.41,0,0,0,0-.11c0-.07.07-.17.11-.25a8,8,0,0,1,5.89-4.89,16.26,16.26,0,0,1,3.47-.39C412.15,27.9,414.21,46.88,405.43,53.42Z"/><path class="cls-11" d="M405.19,53.6a10.69,10.69,0,0,1-3.83,1.71c-4.05.94-6.82.25-8.62-1.61a11.44,11.44,0,0,0,7.27-.6A5.92,5.92,0,0,1,405.19,53.6Z"/><path class="cls-25" d="M406.36,64c.7,3.26-3.52,4.59-3.52,4.59-6.91-3-8.2-6.63-8.2-6.63,5.77-3,4.1-11.51,4.1-11.51l1.17.57,8.24,1.62S405.86,57,405.56,58v0C404,63.22,406.36,64,406.36,64Z"/><path class="cls-2" d="M391.2,33.58s-.63,8,7,11.49c0,0,3.27,8.34,8.09,8.46,6.56.16,12.34-9.18,10.07-18.69C413.39,22.51,394.71,21.51,391.2,33.58Z"/><path class="cls-25" d="M394.33,42.76c0-1.25,1-3.36,3-3.07s3.13,5.26-1.82,6.37C394.75,46.22,394.32,45.38,394.33,42.76Z"/><path class="cls-2" d="M405.19,25s-7.66-1.94-11.9,1.14c-5,3.6-6.82,7.33-1,13.11,0,0,12.87-4.17,17.15-3.29a45.93,45.93,0,0,1,7.33,2.13C417.71,29.63,409.48,23.3,405.19,25Z"/><path class="cls-2" d="M394.33,40.83s2.05,9.26-1.14,17.15c0,0,18.19,6.32,24.52,2.89s.53-14.94.27-21.58S414.83,22.84,405.19,25,394.33,40.83,394.33,40.83Z"/><line class="cls-26" x1="387.77" y1="40.23" x2="395.46" y2="40.23"/><path class="cls-11" d="M399,172l-.73.09-3.88-14.22s8.32-14.21,5.72-21.61C400.47,136.79,409.43,150.08,399,172Z"/><path class="cls-2" d="M383.41,63.23s9.15-3.27,22.95.72,14.3,9.85,14.3,9.85S411.92,93.61,410.55,116l-35.95-1.35S370.32,83,383.41,63.23Z"/><path class="cls-27" d="M420.66,73.8S411.92,93.61,410.54,116L374.6,114.7a96.44,96.44,0,0,1-.66-11,107.22,107.22,0,0,1,1-16.09c1.2-8.3,3.67-17.16,8.47-24.42,0,0,9.15-3.26,22.94.72S420.66,73.8,420.66,73.8Z"/><path class="cls-11" d="M382.91,89s-1.49,9.12-9,14.74a107.22,107.22,0,0,1,1-16.09Z"/><path class="cls-25" d="M343.21,62.6l-4.53-6.72s-.7-2.92-1.57-3.59-9.59-4.36-10.63-4.34-1.05,6.78,0,7.93,6.53,3.61,8,3.86.74,0,.74,0l4,8Z"/><path class="cls-2" d="M383.41,63.23a196.94,196.94,0,0,0-28,14.46l-14.62-20s-3.95,1.23-5.4,8.09c0,0,7.51,28.61,17.27,31.45S382.91,89,382.91,89,388.87,74.09,383.41,63.23Z"/><path class="cls-27" d="M383.41,63.23a196.94,196.94,0,0,0-28,14.46l-14.62-20s-3.95,1.23-5.4,8.09c0,0,7.51,28.61,17.27,31.45S382.91,89,382.91,89,388.87,74.09,383.41,63.23Z"/><path class="cls-2" d="M392.66,62S395.85,84.81,406,85.73s14.63-16,12.92-18S404.15,61.82,392.66,62Z"/><path class="cls-28" d="M392.66,62S395.85,84.81,406,85.73s14.63-16,12.92-18S404.15,61.82,392.66,62Z"/><g id="_Group_" data-name="&lt;Group&gt;"><polygon class="cls-29" points="34.06 269.06 41.46 269.06 42.08 251.91 34.66 251.91 34.06 269.06"/><path class="cls-2" d="M42.49,268.21h-9a.65.65,0,0,0-.63.51l-1.46,6.59a1.11,1.11,0,0,0,.85,1.3l.24,0c2.91-.05,5-.23,8.68-.23,2.25,0,9,.24,12.15.24s3.52-3.07,2.25-3.36c-5.71-1.24-10-3-11.84-4.6A1.76,1.76,0,0,0,42.49,268.21Z"/><path class="cls-5" d="M43,269.23a.16.16,0,0,1-.13-.15.17.17,0,0,1,.08-.17c.27-.17,2.66-1.64,3.48-1.21a.53.53,0,0,1,.3.49,1,1,0,0,1-.37.94,2.25,2.25,0,0,1-1.42.38A8.41,8.41,0,0,1,43,269.23Zm.51-.24a3.65,3.65,0,0,0,2.64-.13.75.75,0,0,0,.23-.63c0-.15-.07-.21-.11-.21a.46.46,0,0,0-.23,0A7.25,7.25,0,0,0,43.51,269Z"/><path class="cls-5" d="M43,269.27a.18.18,0,0,1-.08-.16c0-.1.19-2.23,1-2.93a.94.94,0,0,1,.75-.22.57.57,0,0,1,.56.46c.15.78-1.33,2.41-2.09,2.82h-.08A.17.17,0,0,1,43,269.27Zm1.19-2.88a4.14,4.14,0,0,0-.88,2.32c.77-.58,1.71-1.81,1.61-2.29,0-.05,0-.18-.25-.18h-.09A.58.58,0,0,0,44.14,266.39Z"/><polygon class="cls-11" points="34.66 251.92 42.08 251.92 41.76 260.77 34.34 260.77 34.66 251.92"/><polygon class="cls-29" points="72.19 269.62 79.83 270.43 81.27 253.95 73.63 253.14 72.19 269.62"/><path class="cls-2" d="M80.64,268h-9a.65.65,0,0,0-.64.51l-1.46,6.59a1.11,1.11,0,0,0,.85,1.3,1,1,0,0,0,.24,0c2.91,0,5-.22,8.68-.22,2.25,0,9.05.23,12.15.23s3.52-3.07,2.25-3.35c-5.71-1.24-10-3-11.84-4.61A1.76,1.76,0,0,0,80.64,268Z"/><path class="cls-5" d="M81.15,269a.18.18,0,0,1-.13-.15.16.16,0,0,1,.08-.17c.27-.17,2.66-1.64,3.48-1.22a.52.52,0,0,1,.3.49,1,1,0,0,1-.37.95,2.22,2.22,0,0,1-1.42.37A9.07,9.07,0,0,1,81.15,269Zm.51-.25a3.55,3.55,0,0,0,2.64-.13.74.74,0,0,0,.23-.63c0-.14-.06-.21-.11-.21a.45.45,0,0,0-.23,0A7.23,7.23,0,0,0,81.66,268.75Z"/><path class="cls-5" d="M81.1,269a.21.21,0,0,1-.08-.16c0-.11.19-2.24,1-2.93a1,1,0,0,1,.75-.23.57.57,0,0,1,.56.46c.15.78-1.33,2.41-2.09,2.83H81.2A.17.17,0,0,1,81.1,269Zm1.19-2.89a4.2,4.2,0,0,0-.88,2.32c.77-.57,1.71-1.81,1.61-2.29,0,0,0-.18-.25-.18h-.08A.64.64,0,0,0,82.29,266.15Z"/><polygon class="cls-11" points="73.63 253.14 81.27 253.95 80.52 262.45 72.88 261.64 73.63 253.14"/><path class="cls-2" d="M37.72,101.45H77c3.74,20.4,15.44,92.62,7,157l-13.31-1.65s1.23-85.42-10.52-117c-1.35,16.9-3,34.88-4.35,44.45-3.41,23.55-10.73,75-10.73,75H31.61s2.77-49.26,4-72.41C37.06,161.7,37.67,106.61,37.72,101.45Z"/><polygon class="cls-5" points="85.59 261.51 69.12 259.06 69.62 254.5 86.75 256.75 85.59 261.51"/><polygon class="cls-5" points="46.79 259.34 30.81 259.34 30.81 254.57 47.39 254.26 46.79 259.34"/><path class="cls-11" d="M60.25,139.77a106,106,0,0,1,4.39,17c1.1-15-3.3-31-3.3-31Z"/><path class="cls-5" d="M36.61,108.29l-.9,4.75s27.5,3.56,44.61,3.46l-.59-3.27Z"/><path class="cls-29" d="M92.43,67.16s9.52,30,16,32,23-22.79,23-22.79,14.83-.14,15.49-1.16-3.85-11.45-4.93-11.47-14,4.86-14.5,5.67-15.31,15-16,14.59S105.2,65.7,105.2,65.7Z"/><path class="cls-29" d="M133.39,74.75l.36-.09-.17-.11A1.75,1.75,0,0,1,133.39,74.75Z"/><path class="cls-5" d="M87,63.7l1.16,2.13,5.42,10,1.12,2.07,15.19-5.28s-6.31-23.58-8.5-26Z"/><path class="cls-30" d="M87,63.7l1.16,2.13,5.42,10,1.12,2.07,15.19-5.28s-6.31-23.58-8.5-26Z"/><path class="cls-11" d="M88.19,65.83l5.42,10C97,69.27,96,60.27,96,60.27Z"/><path class="cls-5" d="M101.42,46.63a32.24,32.24,0,0,0-22.88-11.1c-14.89-.7-19.56.78-25,5.64-7.95,7.1-17.83,68.25-17.83,68.25a138.07,138.07,0,0,0,44.62,4.85s.18-17,5.55-28.42A318.61,318.61,0,0,0,101.42,46.63Z"/><path class="cls-30" d="M35.71,109.41a138.17,138.17,0,0,0,44.62,4.86s0-2.09.28-5.3c.12-1.52.31-3.3.56-5.22s.6-4.12,1-6.29c.24-1.17.51-2.35.81-3.53a47.63,47.63,0,0,1,2.85-8.08c.65-1.4,1.29-2.79,1.91-4.15,1.08-2.38,2.09-4.69,3-6.9,2-4.65,3.7-8.9,5.13-12.62,1-2.67,1.9-5.06,2.63-7.12.81-2.28,1.45-4.16,1.92-5.56.61-1.85.91-2.86.91-2.86a19,19,0,0,0-1.61-1.77A32.49,32.49,0,0,0,79,35.57l-.49,0c-11.34-.53-16.76.2-21.1,2.73a23.37,23.37,0,0,0-3.9,2.91,13.64,13.64,0,0,0-2.73,4.26,93.25,93.25,0,0,0-4.54,13.26c-.21.8-.43,1.61-.65,2.43-1,3.71-1.94,7.66-2.84,11.66-.26,1.14-.51,2.28-.76,3.41-.38,1.73-.74,3.47-1.1,5.18-.89,4.31-1.71,8.49-2.42,12.24-1,5.41-1.81,9.93-2.28,12.74C35.89,108.3,35.71,109.41,35.71,109.41Zm43.7-73.3c1,0,2.07.12,3,.24,4,.54,10.14,3.75,10,5.27s-2.5,5.4-8.47,4.46a14.88,14.88,0,0,1-5.8-2.42c-3.3-2.19-5.71-5.13-5.94-6.09C71.88,36.43,75.76,36,79.41,36.11Z"/><path class="cls-5" d="M66.58,56.48s-7.92,19.07-9.5,34.9l21.3,2.71S88,68.33,89.92,60.27C89.92,60.27,72.91,58.57,66.58,56.48Z"/><polygon class="cls-30" points="85.76 61.01 88.73 61.31 86.55 62.99 85.76 61.01"/><path class="cls-29" d="M74.16,37.6c1.61,4.6,7.6,6.7,10.75,7a5.32,5.32,0,0,0,5.69-3.08s-3.58-1.79-3.23-3.8a9.52,9.52,0,0,1,1.48-3.42,20.38,20.38,0,0,1,1.23-1.7L84.33,20.24C83,25.62,79.12,35.88,74.16,37.6Z"/><path class="cls-11" d="M84.1,26c-2.75,6,1.13,10.13,3.27,11.71a9.52,9.52,0,0,1,1.48-3.42Z"/><path class="cls-29" d="M103.38,10s1.84,10.15-3.46,14.23S94.08,9.28,94.08,9.28Z"/><path class="cls-20" d="M103.38,10s1.84,10.15-3.46,14.23S94.08,9.28,94.08,9.28Z"/><path class="cls-29" d="M84.43,32.74A9.27,9.27,0,0,0,95.16,36a10.32,10.32,0,0,0,5.75-5c.17-.32.32-.65.46-1,2.49-6.31,3-21.71-3.68-21.14C92.18,9.41,86.77,7.7,84,12.48a9.88,9.88,0,0,0-1.38,4.46C82,24.25,81.27,28.52,84.43,32.74Z"/><path class="cls-2" d="M93.31,20.53c-.12.58.16,1.11.55,1.17s.77-.39.86-1-.17-1.11-.55-1.16S93.4,19.93,93.31,20.53Z"/><path class="cls-2" d="M100,21.48c-.13.58.16,1.11.55,1.16s.76-.38.85-1-.17-1.11-.55-1.17S100.08,20.92,100,21.48Z"/><path class="cls-31" d="M97.83,21.47a21.6,21.6,0,0,0,2.11,5.46,3.47,3.47,0,0,1-2.92.12Z"/><path class="cls-2" d="M91.54,18.07A.36.36,0,0,0,91.9,18a2.84,2.84,0,0,1,2.39-.85.33.33,0,0,0,.41-.26.36.36,0,0,0-.26-.42h0a3.5,3.5,0,0,0-3,1,.36.36,0,0,0,0,.5h0A.42.42,0,0,0,91.54,18.07Z"/><path class="cls-2" d="M103.2,19.58a.3.3,0,0,0,.43-.39h0a3.5,3.5,0,0,0-2.23-2.31.34.34,0,0,0-.42.25h0a.36.36,0,0,0,.24.43h0A2.8,2.8,0,0,1,103,19.4.38.38,0,0,0,103.2,19.58Z"/><path class="cls-26" d="M92.38,27.32s1.23,2.64,3.74,2.54"/><path class="cls-29" d="M89.19,8.63l.09,3.26a2.41,2.41,0,0,0-1.49,2.91c.79,2.8-1.14,6.86-3.37,8.34,0,0,0-1.18-1-1s-1.32,6.32.34,9.42c0,0-3.54-3.26-4.59-9.82-1-6.08-.8-9.92.06-12.83Z"/><path class="cls-20" d="M89.19,8.63l.09,3.26a2.41,2.41,0,0,0-1.49,2.91c.79,2.8-1.14,6.86-3.37,8.34,0,0,0-1.18-1-1s-1.32,6.32.34,9.42c0,0-3.54-3.26-4.59-9.82-1-6.08-.8-9.92.06-12.83Z"/><path class="cls-2" d="M78.62,12.54a33.82,33.82,0,0,0,10.66-.65c10.08-2,14.37,1.7,14.37,1.7a6.35,6.35,0,0,0,2.09-5c-.3-2.9-4.32-3.4-4.32-3.4S100.2,2,97.53,1s-5.34,1.48-5.34,1.48S88.85-.75,85,.16a5.83,5.83,0,0,0-4.66,5.67s-4.55.46-4.45,2.8S78.62,12.54,78.62,12.54Z"/><ellipse class="cls-26" cx="94.09" cy="21.01" rx="3.27" ry="3.77"/><path class="cls-26" d="M105.57,21.57a3.3,3.3,0,1,1-6.53,0,3.3,3.3,0,1,1,6.53,0Z"/><path class="cls-26" d="M97.35,21.47s1.05-.67,1.69.1"/><path class="cls-26" d="M90.82,21l-5.74-.76a2.83,2.83,0,0,0-2.1.57l-.25.19"/><path class="cls-29" d="M78.56,22.44A7,7,0,0,0,82,26.5c2.18,1.09,3.74-.75,3.53-3.07-.21-2.05-1.57-5.15-4-5.27A3.11,3.11,0,0,0,78.56,22.44Z"/><path class="cls-11" d="M42,76.19c9.43-3.92,16.89-20.11,16.89-20.11l-5.36-3.24-7.28,5.85c-.21.8-.43,1.61-.65,2.43-1,3.71-1.94,7.66-2.84,11.66C42.52,73.92,42.27,75.06,42,76.19Z"/><polygon class="cls-5" points="94 77.91 110.29 71.93 110.75 73.31 94.47 79.11 94 77.91"/><rect class="cls-5" x="2.01" y="115.14" width="47.78" height="29.47" transform="translate(20.67 -2.45) rotate(9.01)"/><polyline class="cls-32" points="21.32 122.66 11.74 127.63 19.31 135.32"/><polyline class="cls-32" points="30.49 137.09 40.07 132.12 32.49 124.43"/><line class="cls-32" x1="22.65" y1="135.85" x2="29.15" y2="123.9"/><path class="cls-29" d="M47.9,43.77S30.12,61.63,27.69,65.1,20.63,107,20.63,107s-1,.34-1.07,1.17-.15,11.63,0,12.13,8.35,5.55,9.55,4.35S32,111.26,32,111.26L27.69,107s5-28.33,8.16-32.92S52,59.71,52,59.71Z"/><path class="cls-5" d="M61.57,36.59c2.6,5.49.63,17-4.15,21.12a139.2,139.2,0,0,1-16,11.47L32.69,57.76S42,48.7,47.59,43.48A25.41,25.41,0,0,1,61.57,36.59Z"/><path class="cls-30" d="M61.57,36.59c2.6,5.49.63,17-4.15,21.12a139.2,139.2,0,0,1-16,11.47L32.69,57.76S42,48.7,47.59,43.48A25.41,25.41,0,0,1,61.57,36.59Z"/><polygon class="cls-5" points="32.69 57.02 31.61 58.5 40.73 70.41 42.02 69.49 32.69 57.02"/></g></g></g></svg>