<svg xmlns="http://www.w3.org/2000/svg" xml:space="preserve" viewBox="0 0 141.1 41.7" class="logo--rarecarat"><path d="M69.834 9.407H66.7a6.4 6.4 0 0 0 1.791-2.04 6.97 6.97 0 0 0 0-6.969L68.291 0h-.398c-2.24 0-4.33 1.045-5.624 2.887a5.858 5.858 0 0 0-3.584-1.195h-.448l-.2.349c-1.045 1.841-1.045 4.081 0 5.873.35.548.747 1.095 1.245 1.493h-3.335l-3.285 4.48L62.866 26.78 73.07 13.887l-3.236-4.48zm-6.72-5.176c.897-1.593 2.54-2.588 4.331-2.738 1.294 2.738.15 6.023-2.588 7.367-.597.299-1.294.448-1.941.498-.797-1.643-.747-3.584.199-5.127zm-.248 20.209-8.362-10.603 2.19-2.986h12.443l2.19 2.986-8.461 10.603zM61.173 8.91c-2.14-1.046-3.036-3.584-2.09-5.774.896.1 1.692.448 2.39.995a7.158 7.158 0 0 0-.3 4.779zm-53.408.199h-.398a7.438 7.438 0 0 0-5.774 2.787V9.507H0v13.987h1.643v-7.018c-.05-1.543.547-3.037 1.692-4.082 1.045-1.095 2.538-1.742 4.081-1.692h.399V9.109h-.05zm12.941 2.737c-1.393-1.742-3.534-2.737-5.773-2.787-1.991 0-3.833.747-5.227 2.19-1.394 1.394-2.19 3.236-2.14 5.227 0 4.081 3.285 7.366 7.367 7.416 2.24 0 4.38-1.045 5.773-2.787v2.389h1.643V9.507h-1.643v2.34zm-5.773-1.144a5.778 5.778 0 0 1 5.773 5.774c0 3.185-2.588 5.773-5.724 5.773h-.05c-1.543.05-2.986-.597-4.081-1.692-1.095-1.045-1.742-2.538-1.692-4.081-.05-1.543.597-3.037 1.692-4.082 1.045-1.095 2.538-1.742 4.082-1.692zm13.887-.548c-.747.448-1.394 1.045-1.941 1.692V9.457h-1.643v13.987h1.643v-6.968a5.778 5.778 0 0 1 5.773-5.774h.399V9.059h-.399a7.31 7.31 0 0 0-3.832 1.095zm19.064 6.322c.05-1.942-.747-3.833-2.19-5.227a7.376 7.376 0 0 0-10.404-.05l-.05.05c-1.393 1.394-2.19 3.236-2.14 5.227 0 4.081 3.335 7.366 7.417 7.366 1.941 0 3.833-.796 5.226-2.14l.25-.249-1.146-1.145-.249.25c-1.045 1.094-2.538 1.691-4.081 1.691-2.887 0-5.276-2.09-5.724-4.977h13.09v-.796zm-7.417-5.774c1.493-.05 2.887.547 3.932 1.592.996.896 1.593 2.091 1.792 3.385H34.743c.15-1.294.796-2.489 1.792-3.385 1.045-1.045 2.489-1.592 3.932-1.592zm44.798.248c1.543-.05 3.036.598 4.081 1.693l.249.298 1.145-1.144-.249-.25a7.39 7.39 0 0 0-10.453 0 7.39 7.39 0 0 0 0 10.454 7.39 7.39 0 0 0 10.453 0l.249-.25-1.145-1.144-.249.249c-2.24 2.24-5.923 2.24-8.163 0a5.722 5.722 0 0 1-1.692-4.082c-.05-1.543.597-3.036 1.692-4.081a5.315 5.315 0 0 1 4.082-1.743zm20.059 1.195C102.785 8.96 98.156 8.462 94.97 11c-3.186 2.539-3.684 7.168-1.145 10.353 2.538 3.186 7.167 3.684 10.353 1.145.398-.348.796-.697 1.145-1.145v2.39h1.642V9.756h-1.642v2.39zm-5.774-1.194a5.778 5.778 0 0 1 5.774 5.773c0 3.186-2.539 5.774-5.724 5.774h-.05a5.778 5.778 0 0 1-5.774-5.774c-.05-1.543.597-3.036 1.692-4.081 1.046-1.095 2.539-1.742 4.082-1.693zm17.919-1.593h-.398c-2.24 0-4.33 1.045-5.774 2.787v-2.39h-1.643v13.988h1.643v-7.019a5.778 5.778 0 0 1 5.774-5.773h.398V9.358zm13.09 2.787c-2.538-3.186-7.217-3.733-10.402-1.145-3.186 2.539-3.733 7.218-1.145 10.403 2.34 2.887 6.421 3.634 9.607 1.742.746-.448 1.393-1.045 1.94-1.692v2.39h1.643V9.755h-1.642v2.39zm-5.773-1.194a5.778 5.778 0 0 1 5.774 5.773 5.778 5.778 0 0 1-5.774 5.774 5.778 5.778 0 0 1-5.774-5.774c-.05-1.543.597-3.036 1.692-4.081 1.046-1.095 2.539-1.742 4.082-1.693zm16.326.497V9.806h-4.58V6.073h-1.642v12.194c0 3.236 2.638 5.824 5.824 5.824h.398V22.45h-.398c-2.34 0-4.23-1.892-4.23-4.182l-.001-6.819h4.63zM5.425 37.033H1.842l-.896 2.29H.249l2.986-7.417h.797l2.986 7.416h-.697l-.896-2.29zm-3.334-.598h3.086l-1.543-3.882-1.543 3.882zm6.022 2.887v-4.977h.598v.846c.149-.249.348-.498.597-.647.299-.2.647-.299.995-.299s.697.1.996.299c.299.199.498.498.597.846.15-.348.349-.647.647-.846.299-.2.697-.299 1.046-.299.248 0 .448.05.696.1.2.1.399.199.548.348.15.15.299.349.348.597.1.25.15.498.15.747v3.285h-.647v-3.235c0-.349-.1-.697-.349-.946a1.36 1.36 0 0 0-.946-.398c-.199 0-.398.05-.547.1-.15.099-.299.199-.448.348-.15.15-.249.299-.299.498-.05.199-.1.398-.1.597v3.036h-.646v-3.235c0-.349-.1-.697-.299-.946a1.36 1.36 0 0 0-.946-.398c-.199 0-.398.05-.547.1-.15.099-.299.199-.448.348-.15.15-.2.299-.299.498-.05.199-.1.398-.1.597v3.036h-.597zm13.041-1.393c-.05.199-.199.398-.298.597-.15.199-.299.348-.498.498-.2.149-.398.248-.647.348-.249.1-.498.1-.796.1-.3 0-.648-.05-.946-.15-.299-.1-.548-.298-.797-.497a1.826 1.826 0 0 1-.497-.847c-.15-.348-.2-.746-.2-1.145 0-.348.05-.746.2-1.045.1-.298.298-.597.497-.846s.448-.398.747-.547c.299-.15.597-.2.896-.2.348 0 .697.05.995.2.3.1.548.298.747.497.2.25.349.498.448.797.1.298.15.647.15.995v.249h-3.983v.05c0 .249.05.547.15.796.1.25.199.448.398.598.15.149.348.298.547.398.2.1.448.149.697.149.398 0 .747-.1 1.095-.348.15-.1.25-.25.349-.399.1-.149.15-.298.199-.448l.547.2zm-.647-1.494c0-.199-.05-.448-.149-.647-.05-.199-.2-.398-.348-.547a1.788 1.788 0 0 0-.498-.349 1.59 1.59 0 0 0-1.344 0c-.2.1-.349.2-.498.349-.15.149-.249.348-.348.547-.1.2-.15.448-.15.647h3.335zm4.53-1.443c-.548-.15-1.095 0-1.493.348a1.639 1.639 0 0 0-.399 1.245v2.737h-.647v-4.977h.598v.945c.149-.298.348-.597.647-.746.298-.15.597-.249.896-.249.149 0 .249 0 .398.05v.647zm.946-2.688c0-.15.05-.299.149-.398.199-.2.498-.2.697-.05l.05.05c.1.1.149.249.149.398 0 .15-.05.249-.15.348-.199.2-.547.2-.746 0a.538.538 0 0 1-.15-.348zm.199 7.018v-4.977h.597v4.977h-.597zm4.43-4.53c-.25 0-.498.05-.697.15-.2.1-.398.249-.598.398-.149.2-.298.398-.398.647-.1.299-.149.548-.149.847 0 .298.05.597.15.846.099.249.198.448.397.647.15.15.349.298.598.398.199.1.448.15.697.15.199 0 .448-.05.647-.1s.348-.15.497-.299c.15-.1.25-.249.349-.398.1-.15.15-.299.199-.398l.548.249c-.05.199-.15.398-.25.597-.099.199-.298.348-.447.498-.2.149-.399.248-.647.348-.25.1-.548.15-.797.15-.348 0-.697-.05-.995-.2-.299-.15-.548-.298-.747-.547-.199-.25-.398-.548-.498-.846a2.6 2.6 0 0 1-.199-1.046c0-.348.05-.697.2-1.045.099-.299.298-.597.497-.846s.498-.398.796-.548c.3-.149.648-.199.996-.199.249 0 .547.05.796.1.25.1.448.199.598.348.199.15.348.299.448.498.1.199.199.398.249.597l-.548.25c-.05-.15-.1-.3-.2-.449-.099-.15-.198-.299-.298-.398l-.448-.299c-.348-.1-.547-.1-.746-.1zm3.036 3.236c0-.398.15-.747.398-.995.299-.25.697-.448 1.095-.498l1.344-.2c.15 0 .299-.099.398-.198.05-.1.1-.2.1-.299 0-.299-.1-.597-.349-.796-.248-.2-.597-.349-.945-.3-.349 0-.697.1-.946.3-.249.199-.398.547-.398.896l-.598-.15c0-.249.1-.448.2-.647s.248-.348.448-.498c.199-.149.398-.248.597-.298.249-.1.498-.1.746-.1.3 0 .548.05.847.15.199.1.398.199.597.398.15.149.249.348.348.547.1.2.1.448.1.697v3.036c0 .15.05.25.05.349h-.598c0-.1-.05-.2-.05-.299v-.547c-.05.149-.149.248-.248.348-.1.1-.25.249-.398.299-.15.1-.3.199-.498.249-.2.05-.398.1-.598.1-.248 0-.497-.05-.696-.1-.2-.05-.349-.2-.498-.3-.15-.099-.249-.298-.299-.447-.1-.299-.15-.498-.15-.697zm1.692.896c.2 0 .448 0 .647-.1.2-.05.349-.199.498-.348.15-.15.249-.299.349-.498.1-.199.1-.448.1-.697v-.597c-.05 0-.05.05-.1.05-.05.05-.1.05-.15.05l-.199.05c-.05 0-.15.05-.199.05l-1.095.149c-.249.05-.498.149-.697.298-.15.15-.249.398-.249.647s.1.448.25.647c.248.25.547.349.845.299zm3.086-6.57c0-.15.05-.25.15-.349.1-.1.249-.149.398-.149.15 0 .298.05.398.2.1.148.2.348.15.497 0 .249-.05.448-.1.647s-.15.348-.25.498c-.198.249-.497.448-.845.547v-.348c.249-.05.398-.25.547-.448.15-.2.2-.448.2-.647-.05.05-.15.05-.2.05a.452.452 0 0 1-.348-.15c-.05-.1-.1-.199-.1-.348zm2.19 5.425c.05.299.2.598.399.797.248.199.597.348.945.298.299 0 .548-.05.797-.249.199-.149.298-.398.298-.647 0-.199-.05-.398-.248-.547-.2-.15-.399-.25-.598-.299l-.846-.199c-.348-.05-.647-.249-.896-.448-.249-.249-.348-.547-.348-.896 0-.199.05-.398.149-.547.1-.2.2-.349.348-.448a1.784 1.784 0 0 1 1.195-.448c.249 0 .498.05.747.1.199.099.348.198.497.298.15.1.25.249.349.448.1.15.15.298.15.448l-.548.199c0-.1-.05-.249-.1-.349-.05-.1-.15-.248-.249-.298-.1-.1-.249-.2-.348-.249-.15-.05-.349-.1-.498-.1-.15 0-.249 0-.398.05-.1.05-.25.1-.349.2a.6.6 0 0 0-.248.248c-.05.1-.1.249-.1.349 0 .398.249.647.747.796l.846.2c.348.049.697.248.945.497s.349.547.349.896c0 .199-.05.348-.1.547-.1.2-.199.349-.348.498-.15.15-.348.249-.548.348-.248.1-.497.15-.746.1-.25 0-.548-.05-.797-.15-.199-.099-.398-.198-.597-.348-.15-.149-.299-.298-.398-.497-.1-.15-.15-.349-.2-.498l.747-.1zm7.317-3.683h1.643l.448-2.14h.597l-.448 2.14h1.842l.448-2.14h.597l-.448 2.14h1.643v.498h-1.792l-.398 2.04h1.692v.498h-1.742l-.448 2.19h-.597l.448-2.19h-1.842l-.448 2.19h-.597l.448-2.19h-1.593v-.498h1.692l.398-2.04h-1.543v-.498zm1.742 2.538h1.842l.398-2.04h-1.841l-.399 2.04zm7.069 2.688V33.2a.6.6 0 0 1-.25.249c-.149.1-.348.15-.497.249-.2.05-.398.149-.597.199-.2.05-.349.1-.548.1v-.498c.249 0 .498-.05.697-.15.199-.1.398-.199.547-.348.15-.15.3-.299.399-.448.1-.2.199-.349.249-.597h.597v7.366h-.597zm7.466-3.185h-1.543v3.185h-.647v-7.416h2.588c.299 0 .597.05.896.15.249.099.498.248.697.447.199.2.348.398.448.647.199.498.199 1.095.05 1.593-.1.249-.2.448-.399.597-.149.2-.348.349-.597.448-.249.1-.498.2-.747.25l1.842 3.234h-.796l-1.792-3.135zm.249-.598c.448 0 .846-.149 1.194-.398.299-.298.448-.697.448-1.095s-.15-.796-.448-1.095c-.348-.299-.746-.448-1.194-.398h-1.792v2.986h1.792zm3.583-3.235c0-.15.05-.299.15-.398.199-.2.498-.2.697-.05l.05.05c.099.1.149.249.149.398 0 .15-.05.249-.15.348-.199.2-.547.2-.746 0a.538.538 0 0 1-.15-.348zm.2 7.018v-4.977h.597v4.977h-.597zm3.036 0h-.647v-4.977h.597v.846c.15-.299.348-.548.647-.697.299-.199.647-.299.996-.249.248 0 .547.05.746.15.2.1.398.199.548.398.15.15.249.398.348.597.05.249.1.498.1.747v3.185h-.647v-3.136c0-.199 0-.348-.1-.547-.1-.349-.348-.597-.647-.747-.2-.1-.398-.1-.597-.1-.2 0-.398.05-.598.15-.149.1-.298.2-.448.348-.1.15-.199.3-.248.498-.05.2-.1.398-.1.598v2.936h.05zm5.176.15c0 .199.05.398.15.547.1.15.199.299.348.448.15.15.299.249.498.299.199.1.398.1.597.1.299 0 .548-.05.846-.15.2-.1.399-.249.548-.398.15-.2.249-.398.299-.598.05-.248.1-.497.1-.746v-.896c-.05.15-.15.249-.25.348-.1.15-.199.25-.348.349-.15.1-.299.199-.498.249-.2.05-.398.1-.597.1a2.147 2.147 0 0 1-1.593-.698c-.2-.199-.348-.497-.448-.746-.1-.299-.15-.647-.15-.996s.05-.647.15-.946c.1-.298.249-.547.448-.746.199-.2.448-.398.697-.498.298-.1.597-.199.896-.199.398 0 .796.1 1.095.299.249.199.448.398.597.696v-.945h.597v4.629c0 .298-.05.597-.1.896-.049.298-.198.547-.397.796s-.448.448-.747.597c-.348.15-.747.25-1.145.25-.298 0-.547-.05-.846-.15-.249-.1-.448-.2-.647-.398-.2-.15-.348-.349-.448-.597-.1-.25-.2-.498-.2-.747l.548-.15zm1.743-.946c.248 0 .447-.05.647-.15.199-.099.348-.248.497-.398.15-.149.25-.398.349-.597.15-.498.15-.995 0-1.493-.05-.2-.2-.398-.349-.598-.149-.149-.298-.298-.497-.398-.2-.1-.448-.149-.647-.149-.448 0-.896.2-1.195.547-.15.2-.249.399-.299.598-.1.249-.1.498-.1.746s.05.498.1.747c.05.2.2.398.349.597.249.349.697.548 1.145.548zm13.688.796v-6.42l-2.937 6.42H88.3l-2.887-6.42v6.42h-.647v-7.416h.946l2.936 6.57 2.937-6.57h.896v7.416h-.597zm2.19-1.294c0-.398.15-.747.398-.995.299-.25.697-.448 1.095-.498l1.344-.2c.15 0 .299-.099.398-.198.05-.1.1-.2.1-.299 0-.299-.1-.597-.349-.796-.249-.2-.597-.349-.945-.3-.349 0-.697.1-.996.3a1.14 1.14 0 0 0-.398.846l-.597-.15c0-.248.1-.448.199-.647s.248-.348.448-.497c.199-.15.398-.25.597-.299.249-.1.498-.1.747-.1.298 0 .547.05.846.15.199.1.398.199.597.398.15.15.249.348.348.547.1.2.1.448.1.697v3.037c0 .149.05.248.05.348h-.598c0-.1-.05-.2-.05-.299v-.547c-.05.15-.149.249-.248.348-.1.1-.25.25-.398.299-.15.1-.3.199-.498.249-.2.05-.398.1-.597.1-.25 0-.498-.05-.697-.1-.2-.05-.349-.2-.498-.299-.15-.1-.249-.299-.299-.448-.05-.298-.1-.448-.1-.647zm1.692.896c.249 0 .448-.05.647-.1s.349-.199.498-.348c.15-.15.249-.299.348-.498.1-.199.1-.448.1-.697v-.597c-.05 0-.05.05-.1.05s-.1.05-.149.05l-.2.05c-.049 0-.148.05-.198.05l-1.095.149c-.25.05-.498.149-.697.298-.15.15-.249.398-.249.647s.1.448.249.647c.249.2.547.299.846.299zm6.421-3.932c-.15-.05-.299-.05-.448-.05-.398 0-.796.15-1.045.398a1.639 1.639 0 0 0-.398 1.245v2.737h-.647v-4.977h.597v.945c.15-.298.348-.597.647-.746.299-.15.597-.249.896-.249.15 0 .249 0 .398.05v.647zm3.136 1.493 2.14 2.887h-.796l-1.842-2.439-.896.896v1.493h-.597v-7.566h.597v5.177l2.638-2.638h.896l-2.14 2.19zm7.217 1.444c-.05.199-.149.398-.298.597-.15.199-.299.348-.498.498-.2.149-.398.248-.647.348-.25.1-.498.1-.797.1-.298 0-.647-.05-.945-.15-.299-.1-.548-.298-.797-.497-.199-.25-.398-.548-.497-.847-.15-.348-.2-.746-.2-1.145 0-.348.05-.746.2-1.045.1-.298.298-.597.497-.846s.448-.398.747-.547c.299-.15.597-.2.896-.2.348 0 .697.05.995.2.299.1.548.298.747.497.2.25.348.498.448.797.1.298.15.647.15.995v.2h-3.983v.049c0 .249.05.548.15.796.1.25.199.448.398.598.15.15.348.298.547.398.2.1.448.15.697.15.398 0 .747-.1 1.095-.35.15-.099.25-.248.349-.397.1-.15.149-.299.199-.448l.547.249zm-.597-1.494c0-.199-.05-.448-.15-.647-.05-.199-.198-.398-.348-.547a1.788 1.788 0 0 0-.498-.349 1.59 1.59 0 0 0-1.343 0c-.2.1-.349.2-.498.349-.15.149-.25.348-.349.547-.1.2-.149.448-.149.647h3.335zm2.887-2.09h1.294v.597h-1.294v2.987c0 .597.299.895.846.895h.249c.05 0 .1-.05.2-.05v.548c-.05.05-.15.05-.25.05-.15 0-.249.05-.398.05-.348 0-.697-.1-.946-.349-.249-.298-.398-.647-.348-1.045v-3.086h-1.045v-.597h.348c.348.05.697-.2.747-.548v-1.045h.597v1.593zm2.538 6.968v-6.968h.598v.995c.05-.15.15-.249.249-.398.1-.15.249-.249.398-.348.15-.1.298-.2.498-.25.199-.049.448-.099.647-.099.348 0 .647.05.945.2.25.149.498.298.697.547.2.249.349.547.448.846.2.697.2 1.394 0 2.09-.1.3-.249.598-.448.847s-.448.448-.746.547c-.299.15-.598.2-.946.2-.2 0-.448-.05-.647-.1s-.349-.15-.498-.25c-.15-.099-.249-.198-.398-.347-.1-.1-.2-.25-.249-.399v2.887h-.548zm3.933-3.683c.149-.548.149-1.095 0-1.643-.05-.249-.2-.497-.349-.647-.15-.199-.348-.348-.547-.448a1.7 1.7 0 0 0-1.394 0c-.2.1-.398.25-.547.448-.15.2-.25.398-.349.647-.1.25-.15.548-.15.846 0 .3.05.548.1.847.1.249.2.497.398.647.15.199.349.348.548.448.448.199.946.199 1.394 0 .199-.1.398-.25.547-.448.15-.2.299-.448.349-.697zm2.09 1.692v-7.566h.647v7.566h-.647zm2.041-1.294c0-.398.15-.747.398-.995.299-.25.697-.448 1.095-.498l1.344-.2c.15 0 .299-.099.398-.198.05-.1.1-.2.1-.299 0-.299-.1-.597-.349-.796-.248-.2-.597-.349-.945-.3-.349 0-.697.1-.946.3a1.14 1.14 0 0 0-.398.846l-.597-.15c0-.248.1-.448.199-.647s.249-.348.448-.497c.199-.15.398-.25.597-.299a2.886 2.886 0 0 1 1.593 0c.199.1.448.2.597.398.15.15.249.349.348.548.1.249.1.497.1.697v3.036c0 .15.05.249.05.348h-.598c0-.1-.05-.199-.05-.298v-.548c-.05.15-.149.249-.248.348-.1.1-.249.25-.398.3-.15.099-.299.198-.498.248-.2.05-.398.1-.597.1-.25 0-.498-.05-.697-.1-.2-.05-.349-.2-.498-.299a1.175 1.175 0 0 1-.299-.448c-.1-.248-.149-.398-.149-.597zm1.692.896c.25 0 .448-.05.647-.1s.349-.199.498-.348c.15-.15.249-.299.349-.498.1-.199.1-.448.1-.697v-.597c-.05 0-.05.05-.1.05-.05.05-.1.05-.15.05l-.199.05-.199.05-1.095.149c-.249.05-.498.149-.697.298a.932.932 0 0 0 0 1.294c.299.2.597.299.846.299zM133 34.793c-.25 0-.498.05-.697.149-.2.1-.398.249-.597.398-.15.2-.299.398-.399.647-.1.299-.149.548-.149.846 0 .3.05.598.15.847.099.249.199.448.398.647.149.15.348.298.597.398.199.1.448.15.697.15.199 0 .448-.05.647-.1a1.55 1.55 0 0 0 .796-.697c.1-.15.15-.299.2-.398l.547.249c-.05.199-.15.398-.249.597-.15.199-.299.348-.448.498-.2.149-.398.248-.647.348-.249.1-.548.15-.796.15-.349 0-.697-.05-.996-.2-.299-.15-.547-.298-.747-.547-.199-.25-.398-.548-.497-.846a2.6 2.6 0 0 1-.2-1.046c0-.348.05-.697.2-1.045.1-.299.298-.597.497-.846s.498-.398.797-.548c.298-.149.647-.199.995-.199.299 0 .548.05.797.1.448.15.796.448 1.045.846.1.199.2.398.249.597l-.548.25c-.05-.15-.1-.3-.199-.449-.1-.15-.199-.299-.298-.398l-.448-.299c-.25-.1-.448-.1-.697-.1zm7.566 3.136c-.05.199-.15.398-.3.597-.148.199-.298.348-.447.498-.2.149-.398.248-.647.348-.249.1-.498.1-.797.1-.298 0-.647-.05-.945-.15-.299-.1-.548-.298-.747-.498a1.826 1.826 0 0 1-.498-.846c-.149-.348-.199-.746-.199-1.145 0-.348.05-.746.2-1.045.099-.298.298-.597.497-.846s.448-.398.697-.547c.299-.15.597-.2.896-.2.348 0 .697.05.995.2.3.1.548.298.747.497.2.25.348.498.448.797.1.298.15.647.15.995v.2h-3.983v.049c0 .249.05.548.15.796.1.25.199.448.398.598.15.15.348.298.547.398.2.1.448.15.697.15.398 0 .747-.1 1.095-.35.15-.099.25-.248.349-.397.1-.15.15-.299.199-.448l.498.249zm-.598-1.494c0-.199-.05-.448-.1-.647s-.198-.398-.348-.547a1.788 1.788 0 0 0-.497-.349 1.59 1.59 0 0 0-1.344 0c-.2.1-.349.2-.498.349-.15.149-.249.348-.349.547-.1.2-.149.448-.149.647h3.285z"></path></svg>