<?xml version="1.0" encoding="utf-8"?>
<!-- Generator: Adobe Illustrator 25.1.0, SVG Export Plug-In . SVG Version: 6.00 Build 0)  -->
<svg version="1.1" id="Layer_1" xmlns="http://www.w3.org/2000/svg" xmlns:xlink="http://www.w3.org/1999/xlink" x="0px" y="0px"
	 viewBox="0 0 511 511" style="enable-background:new 0 0 511 511;" xml:space="preserve">
<style type="text/css">
	.st0{fill:#0089FF;}
</style>
<g>
	<path d="M487.5,16h-464C10.5,16,0,26.5,0,39.5v432c0,13,10.5,23.5,23.5,23.5h464c13,0,23.5-10.5,23.5-23.5v-432
		C511,26.5,500.5,16,487.5,16z M23.5,31h464c4.7,0,8.5,3.8,8.5,8.5V80H15V39.5C15,34.8,18.8,31,23.5,31z M487.5,480h-464
		c-4.7,0-8.5-3.8-8.5-8.5V95h481v376.5C496,476.2,492.2,480,487.5,480z"/>
	<path d="M39.5,63c2,0,3.9-0.8,5.3-2.2c1.4-1.4,2.2-3.3,2.2-5.3s-0.8-3.9-2.2-5.3c-1.4-1.4-3.3-2.2-5.3-2.2s-3.9,0.8-5.3,2.2
		c-1.4,1.4-2.2,3.3-2.2,5.3s0.8,3.9,2.2,5.3C35.6,62.2,37.5,63,39.5,63z"/>
	<path d="M63.5,63c2,0,3.9-0.8,5.3-2.2s2.2-3.3,2.2-5.3s-0.8-3.9-2.2-5.3c-1.4-1.4-3.3-2.2-5.3-2.2c-2,0-3.9,0.8-5.3,2.2
		c-1.4,1.4-2.2,3.3-2.2,5.3s0.8,3.9,2.2,5.3C59.6,62.2,61.5,63,63.5,63z"/>
	<path d="M87.5,63c2,0,3.9-0.8,5.3-2.2s2.2-3.3,2.2-5.3s-0.8-3.9-2.2-5.3c-1.4-1.4-3.3-2.2-5.3-2.2s-3.9,0.8-5.3,2.2
		S80,53.5,80,55.5s0.8,3.9,2.2,5.3C83.6,62.2,85.5,63,87.5,63z"/>
	<path d="M215,271.5c0-13-10.5-23.5-23.5-23.5c-10.3,0-19.1,6.7-22.3,16h-43.5c-1.1-3.2-2.9-6.2-5.2-8.6l11.1-16.6
		c1.1,0.1,2.1,0.2,3.2,0.2h48.6c17.4,0,31.5-14.1,31.5-31.5v-56c0-4.1-3.4-7.5-7.5-7.5H84l-3.6-7.1c-2.6-5.4-8-8.9-14-8.9H55.5
		c-4.1,0-7.5,3.4-7.5,7.5s3.4,7.5,7.5,7.5h10.9c0.2,0,0.4,0.1,0.5,0.3c0,0.1,0.1,0.2,0.1,0.3l39.4,77.3c2.4,5.2,6.2,9.5,10.8,12.7
		l-9.9,14.8c-1.2-0.2-2.5-0.3-3.8-0.3c-13,0-23.5,10.5-23.5,23.5S90.5,295,103.5,295c10.3,0,19.1-6.7,22.3-16h43.5
		c3.1,9.3,11.9,16,22.3,16C204.5,295,215,284.5,215,271.5L215,271.5z M91.7,159H200v48.5c0,9.1-7.4,16.5-16.5,16.5h-48.6
		c-6.4,0-12.3-3.8-15-9.6c0-0.1-0.1-0.2-0.1-0.3L91.7,159z M103.5,280c-4.7,0-8.5-3.8-8.5-8.5s3.8-8.5,8.5-8.5s8.5,3.8,8.5,8.5
		S108.2,280,103.5,280z M191.5,280c-4.7,0-8.5-3.8-8.5-8.5s3.8-8.5,8.5-8.5s8.5,3.8,8.5,8.5S196.2,280,191.5,280z"/>
	<path d="M303.5,320h-96c-8.5,0-15.5,7-15.5,15.5v48c0,8.5,7,15.5,15.5,15.5h96c8.5,0,15.5-7,15.5-15.5v-48
		C319,327,312,320,303.5,320z M304,383.5c0,0.3-0.2,0.5-0.5,0.5h-96c-0.3,0-0.5-0.2-0.5-0.5v-48c0-0.3,0.2-0.5,0.5-0.5h96
		c0.3,0,0.5,0.2,0.5,0.5V383.5z"/>
	<path d="M159.5,320h-96C55,320,48,327,48,335.5v48c0,8.5,7,15.5,15.5,15.5h96c8.5,0,15.5-7,15.5-15.5v-48
		C175,327,168,320,159.5,320z M160,383.5c0,0.3-0.2,0.5-0.5,0.5h-96c-0.3,0-0.5-0.2-0.5-0.5v-48c0-0.3,0.2-0.5,0.5-0.5h96
		c0.3,0,0.5,0.2,0.5,0.5V383.5z"/>
	<path d="M447.5,320h-96c-8.5,0-15.5,7-15.5,15.5v48c0,8.5,7,15.5,15.5,15.5h96c8.5,0,15.5-7,15.5-15.5v-48
		C463,327,456,320,447.5,320z M448,383.5c0,0.3-0.2,0.5-0.5,0.5h-96c-0.3,0-0.5-0.2-0.5-0.5v-48c0-0.3,0.2-0.5,0.5-0.5h96
		c0.3,0,0.5,0.2,0.5,0.5V383.5z"/>
	<path d="M167.5,416h-112c-4.1,0-7.5,3.4-7.5,7.5s3.4,7.5,7.5,7.5h112c4.1,0,7.5-3.4,7.5-7.5S171.6,416,167.5,416z"/>
	<path d="M311.5,416h-112c-4.1,0-7.5,3.4-7.5,7.5s3.4,7.5,7.5,7.5h112c4.1,0,7.5-3.4,7.5-7.5S315.6,416,311.5,416z"/>
	<path d="M455.5,416h-112c-4.1,0-7.5,3.4-7.5,7.5s3.4,7.5,7.5,7.5h112c4.1,0,7.5-3.4,7.5-7.5S459.6,416,455.5,416z"/>
	<path d="M399.5,448h-56c-4.1,0-7.5,3.4-7.5,7.5s3.4,7.5,7.5,7.5h56c4.1,0,7.5-3.4,7.5-7.5S403.6,448,399.5,448z"/>
	<path d="M255.5,448h-56c-4.1,0-7.5,3.4-7.5,7.5s3.4,7.5,7.5,7.5h56c4.1,0,7.5-3.4,7.5-7.5S259.6,448,255.5,448z"/>
	<path d="M111.5,448h-56c-4.1,0-7.5,3.4-7.5,7.5s3.4,7.5,7.5,7.5h56c4.1,0,7.5-3.4,7.5-7.5S115.6,448,111.5,448z"/>
	<path d="M263.5,143h72c4.1,0,7.5-3.4,7.5-7.5s-3.4-7.5-7.5-7.5h-72c-4.1,0-7.5,3.4-7.5,7.5S259.4,143,263.5,143z"/>
	<path d="M455.5,160h-192c-4.1,0-7.5,3.4-7.5,7.5s3.4,7.5,7.5,7.5h192c4.1,0,7.5-3.4,7.5-7.5S459.6,160,455.5,160z"/>
	<path d="M455.5,208h-152c-4.1,0-7.5,3.4-7.5,7.5s3.4,7.5,7.5,7.5h152c4.1,0,7.5-3.4,7.5-7.5S459.6,208,455.5,208z"/>
	<path d="M455.5,240h-152c-4.1,0-7.5,3.4-7.5,7.5s3.4,7.5,7.5,7.5h152c4.1,0,7.5-3.4,7.5-7.5S459.6,240,455.5,240z"/>
	<path d="M455.5,272h-152c-4.1,0-7.5,3.4-7.5,7.5s3.4,7.5,7.5,7.5h152c4.1,0,7.5-3.4,7.5-7.5S459.6,272,455.5,272z"/>
	<path d="M263.5,223h8c4.1,0,7.5-3.4,7.5-7.5s-3.4-7.5-7.5-7.5h-8c-4.1,0-7.5,3.4-7.5,7.5S259.4,223,263.5,223z"/>
	<path d="M263.5,255h8c4.1,0,7.5-3.4,7.5-7.5s-3.4-7.5-7.5-7.5h-8c-4.1,0-7.5,3.4-7.5,7.5S259.4,255,263.5,255z"/>
	<path d="M263.5,287h8c4.1,0,7.5-3.4,7.5-7.5s-3.4-7.5-7.5-7.5h-8c-4.1,0-7.5,3.4-7.5,7.5S259.4,287,263.5,287z"/>
	<path class="st0" d="M134.9,224h48.6c9.1,0,16.5-7.4,16.5-16.5V159H91.7l28.1,55.1c0,0.1,0.1,0.2,0.1,0.3
		C122.6,220.2,128.5,224,134.9,224z"/>
</g>
</svg>
